<svg width="44" height="49" viewBox="0 0 44 49" fill="none" xmlns="http://www.w3.org/2000/svg">
<path d="M30.5527 41.2913C30.5469 41.3238 30.5412 41.3562 30.5092 41.4338C30.4374 42.4451 30.3864 43.4112 30.3544 44.3779C30.3511 44.4764 30.4622 44.5788 30.5202 44.6794C30.5202 44.6794 30.5399 44.6838 30.5319 44.7048C30.5264 44.7908 30.5291 44.8558 30.512 44.9506C30.732 46.0311 30.9717 47.0819 31.2141 48.1447C31.1681 48.1263 31.0514 48.1058 30.9679 48.042C29.4972 46.9187 28.6967 45.3961 28.511 43.5894C28.4011 42.5195 28.4028 41.4204 28.5112 40.3504C28.641 39.0687 28.9398 37.8043 29.161 36.5316C29.1928 36.3487 29.1999 36.1615 29.2195 35.9655C28.5948 36.0195 27.6177 36.8096 27.4087 37.3951C27.3439 37.4942 27.2936 37.5701 27.2119 37.6475C27.022 38.1004 26.8635 38.5519 26.6982 39.0314C26.6872 39.0977 26.683 39.1359 26.6471 39.1824C26.5738 39.492 26.5321 39.7933 26.4839 40.1349C26.4797 40.5074 26.4821 40.8395 26.4686 41.2092C26.5226 41.5634 26.5924 41.88 26.6629 42.2336C26.6732 42.3932 26.6829 42.5158 26.6712 42.6523C26.665 42.7484 26.6801 42.8306 26.6893 42.9462C26.6968 43.0447 26.7103 43.11 26.7121 43.207C26.767 43.4129 26.8335 43.587 26.9015 43.7916C26.9146 43.8818 26.9263 43.9416 26.9247 44.029C26.9169 44.0968 26.9223 44.137 26.9113 44.2036C26.968 44.4277 27.0409 44.6254 27.1155 44.8597C27.1348 45.0163 27.1525 45.1364 27.1532 45.2863C27.1462 45.36 27.1561 45.4037 27.154 45.4804C27.2116 45.7155 27.2812 45.9176 27.3512 46.1536C27.3658 46.2765 27.3798 46.3655 27.37 46.476C27.4167 46.7266 27.4872 46.9558 27.5569 47.2188C27.5577 47.32 27.5592 47.3874 27.5276 47.4557C27.451 47.4657 27.4076 47.4749 27.3659 47.4766C27.3677 47.469 27.353 47.4639 27.3581 47.4338C27.305 47.3434 27.2467 47.2831 27.1786 47.1967C27.098 47.1024 27.0271 47.0342 26.9562 46.9661C26.9387 46.9263 26.9212 46.8865 26.8911 46.7883C26.8076 46.6063 26.7368 46.4829 26.6644 46.3266C26.4827 46.0363 26.3025 45.7789 26.1081 45.4966C26.0533 45.407 26.0127 45.3422 25.9807 45.2486C25.8909 45.0754 25.7925 44.9309 25.6859 44.7578C25.5984 44.6525 25.519 44.5757 25.4397 44.499C25.4201 44.4708 25.4006 44.4426 25.3796 44.3638C25.296 44.2012 25.2138 44.0894 25.1242 43.949C25.0102 43.7576 24.9035 43.5947 24.7894 43.4007C24.6846 43.2455 24.5872 43.1215 24.4858 42.9709C24.4543 42.8994 24.4268 42.8546 24.3941 42.7792C24.2149 42.5204 24.0408 42.292 23.8509 42.0392C23.7415 41.8869 23.6479 41.759 23.5575 41.6006C23.4194 41.4083 23.2781 41.2464 23.1315 41.0612C23.0908 41.0146 23.0553 40.9911 23.0198 40.9677C22.9958 40.936 22.9718 40.9042 22.9403 40.8228C22.8523 40.6886 22.7719 40.6041 22.6797 40.5048C22.648 40.4685 22.6248 40.4641 22.5984 40.4767C22.5984 40.4767 22.5846 40.4519 22.5739 40.4207C22.5163 40.3574 22.4694 40.3254 22.4225 40.2934C22.4225 40.2934 22.4041 40.2671 22.3918 40.2364C22.3394 40.1602 22.2992 40.1147 22.2557 40.0386C22.1858 39.9444 22.1192 39.8809 22.0356 39.7912C21.7623 39.4715 21.5062 39.1782 21.2435 38.8575C21.1812 38.7832 21.1253 38.7362 21.0582 38.6684C21.0026 38.6032 20.9583 38.5588 20.9089 38.4829C20.806 38.3539 20.7081 38.2566 20.6022 38.1332C20.5262 38.0543 20.4582 38.0013 20.39 37.9166C20.3275 37.8018 20.2651 37.7188 20.2136 37.6069C20.1453 37.4929 20.0661 37.4079 19.9795 37.2968C19.9183 37.2007 19.8644 37.1308 19.8062 37.0307C19.7423 36.9258 19.6828 36.8512 19.6116 36.7616C19.5798 36.727 19.5563 36.7208 19.5292 36.7278C19.5292 36.7278 19.5147 36.6879 19.5051 36.6444C19.4566 36.5389 19.4178 36.477 19.373 36.3833C19.3019 36.2516 19.2367 36.1516 19.1573 36.026C19.1045 35.9329 19.0659 35.8653 19.0369 35.7692C18.9768 35.6489 18.9071 35.5571 18.838 35.4369C18.8193 35.3556 18.8001 35.3028 18.7871 35.224C18.7498 35.1492 18.7062 35.1006 18.6576 35.0266C18.6247 34.9027 18.597 34.8042 18.5795 34.6793C18.5446 34.6017 18.4995 34.5504 18.4426 34.4892C18.4309 34.4793 18.4063 34.4977 18.4063 34.4977C18.3958 34.4339 18.3854 34.3702 18.3792 34.2416C18.3793 34.079 18.3751 33.9812 18.3881 33.8553C18.3938 33.6322 18.3823 33.4371 18.3781 33.2057C18.3759 33.0721 18.3664 32.975 18.3569 32.8779C18.3692 32.7604 18.3816 32.643 18.4254 32.4777C18.5007 32.246 18.5445 32.0621 18.6021 31.8468C18.6174 31.7473 18.619 31.6793 18.6355 31.5847C18.6881 31.451 18.7258 31.3439 18.7842 31.2093C18.9072 30.9687 19.0094 30.7556 19.1415 30.5336C19.4066 30.3032 19.6419 30.0818 19.8947 29.8568C19.9121 29.8531 19.9418 29.8333 19.9721 29.8424C20.0643 29.8409 20.1263 29.8302 20.2212 29.8361C20.5682 29.8433 20.8822 29.8338 21.2233 29.8387C21.2904 29.8519 21.3305 29.8508 21.402 29.8652C21.7154 29.9501 21.9974 30.0196 22.2794 30.089C22.2794 30.089 22.3146 30.102 22.3372 30.1312C22.456 30.2015 22.5522 30.2426 22.6745 30.2953C22.7373 30.3024 22.774 30.2979 22.8106 30.2935C22.8106 30.2935 22.841 30.3132 22.8678 30.347C22.9997 30.4218 23.1047 30.4626 23.2333 30.5154C23.291 30.5361 23.3251 30.5448 23.3666 30.5843C23.7978 30.8107 24.2214 31.0062 24.6735 31.2179C24.7447 31.2378 24.7876 31.2416 24.8445 31.2734C25.0569 31.3512 25.2552 31.4009 25.4811 31.4579C25.5465 31.4687 25.5843 31.4721 25.6291 31.5051C25.8191 31.5786 26.0021 31.6226 26.2203 31.6726C26.35 31.6722 26.4445 31.6658 26.5624 31.6757C26.8075 31.5552 27.029 31.4184 27.2778 31.2665C27.3381 31.1581 27.3712 31.0647 27.4047 30.9674C27.4051 30.9635 27.4106 30.958 27.4276 30.9613C27.4446 30.9645 27.4703 30.9414 27.4985 30.9326C27.57 30.7729 27.6133 30.6219 27.6603 30.4394C27.6531 30.3677 27.6424 30.3275 27.6411 30.2617C27.6595 30.2007 27.6684 30.1654 27.7071 30.1215C27.7798 29.9846 27.8228 29.8562 27.8766 29.6982C27.8994 29.6068 27.9112 29.545 27.9526 29.4739C28.0528 29.3178 28.1235 29.1709 28.2167 29.0032C28.4048 28.9073 28.5703 28.8321 28.7575 28.7755C28.8862 28.7837 28.9934 28.7735 29.1394 28.77C29.5674 28.8529 29.7354 28.6989 29.7112 28.2982C29.6942 28.0165 29.717 27.7324 29.7523 27.4532C29.8604 27.3808 29.9382 27.3046 30.037 27.2212C30.058 27.214 30.0981 27.1947 30.1269 27.2103C30.199 27.2244 30.2424 27.2229 30.3077 27.2391C30.7 27.2443 30.9936 27.0521 31.0621 26.7136C31.1348 26.3551 31.0852 25.9689 31.0625 25.5964C31.0581 25.5227 30.9335 25.4562 30.8561 25.3858C30.848 25.3852 30.8422 25.4004 30.8522 25.3766C30.8535 25.3381 30.8446 25.3233 30.8429 25.2896C30.8499 25.2707 30.8597 25.2315 30.888 25.2256C30.9387 25.1525 30.9612 25.0853 30.9986 25.007C31.0135 24.9959 31.0387 24.9684 31.0702 24.9657C31.1961 24.8863 31.2904 24.8097 31.4169 24.7333C31.512 24.7233 31.575 24.7132 31.6664 24.7178C31.8096 24.6621 31.9244 24.5917 32.0735 24.5153C32.2001 24.5004 32.2926 24.4916 32.4055 24.5095C32.7252 24.45 33.0242 24.3637 33.3539 24.2719C33.5183 24.1447 33.652 24.0231 33.8137 23.8866C34.0791 23.6056 34.1205 23.3531 33.7843 23.0949C33.7664 23.0011 33.7546 22.9385 33.7682 22.8615C33.7259 22.7313 33.658 22.6157 33.5815 22.4718C33.5567 22.408 33.5405 22.3724 33.5381 22.3106C33.5463 22.2454 33.5406 22.2065 33.5477 22.138C33.4939 21.9914 33.4274 21.8744 33.3535 21.7237C33.3366 21.5987 33.327 21.5074 33.3413 21.3926C33.2753 20.9558 33.1853 20.5425 33.0947 20.0944C33.0896 19.9676 33.0851 19.8755 33.1015 19.7524C33.1089 19.2868 33.0955 18.8523 33.0838 18.3863C33.0901 18.2919 33.0946 18.229 33.1263 18.1489C33.3533 17.1406 33.8476 16.2678 34.2458 15.3538C34.6801 14.3567 35.0636 13.3358 35.4308 12.3115C35.7891 11.3124 35.7384 10.2615 35.6918 9.22486C35.6744 8.83668 35.5144 8.4549 35.4189 8.04141C35.4172 7.9743 35.416 7.93599 35.433 7.87214C35.4635 7.73256 35.4756 7.61852 35.4877 7.50447C35.7359 8.10079 35.8701 8.71639 36.0334 9.32416C36.0883 9.52828 36.2174 9.71244 36.3168 9.93413C36.3222 10.0006 36.3233 10.0387 36.3044 10.107C36.3609 10.8272 36.4237 11.5192 36.5201 12.2065C36.5619 12.505 36.6728 12.7938 36.7542 13.1197C36.7577 13.2176 36.7593 13.2828 36.7408 13.3797C36.7934 14.6382 36.8547 15.8658 36.9476 17.0911C36.9704 17.3926 37.0966 17.6863 37.1752 17.9836C37.1812 18.025 37.1872 18.0663 37.1945 18.162C37.1951 18.2798 37.1944 18.3431 37.175 18.4462C37.2451 19.2726 37.3274 20.06 37.4298 20.8447C37.4455 20.9655 37.5533 21.0742 37.6184 21.1885C37.6184 21.1885 37.6345 21.2271 37.6377 21.2698C37.6393 21.3536 37.6376 21.3946 37.6157 21.4622C37.8116 22.2634 37.9789 23.0563 38.2567 23.8082C38.5923 24.7162 39.0965 25.5707 39.8535 26.1719C40.5356 26.7137 41.3472 27.0946 42.1097 27.5324C42.4688 27.7387 42.8467 27.9121 43.2161 28.1004C43.2029 28.1478 43.1897 28.1952 43.1765 28.2425C42.8863 28.2752 42.5934 28.3505 42.3065 28.3319C41.6993 28.2924 41.0712 28.2849 40.4965 28.1136C39.8738 27.9279 39.2969 27.5814 38.7103 27.2846C38.3464 27.1005 38.1773 27.1578 38.1944 27.5418C38.2095 27.8811 38.2069 28.2662 38.3639 28.5459C38.9493 29.5888 39.5941 30.5986 40.2268 31.6145C40.283 31.7048 40.4127 31.7493 40.5217 31.8423C40.6097 31.9339 40.6842 31.9983 40.7588 32.0628C40.7762 32.1366 40.7937 32.2104 40.7935 32.321C40.8247 32.4071 40.8736 32.4565 40.9337 32.5246C40.956 32.5701 40.9666 32.5971 40.9691 32.6527C41.0099 32.7314 41.0584 32.7819 41.1068 32.8323C41.1313 32.8631 41.1558 32.8939 41.1904 32.9601C41.1976 33.0117 41.1947 33.0279 41.1797 33.0747C41.2341 33.1941 41.3004 33.2828 41.3815 33.4006C41.41 33.4934 41.4237 33.557 41.4131 33.6322C41.4331 33.6967 41.4773 33.7497 41.5415 33.8088C41.5615 33.8148 41.6027 33.8071 41.6044 33.8428C41.6145 33.9731 41.6229 34.0677 41.6048 34.1777C41.6559 34.3319 41.7335 34.4708 41.8111 34.6097C41.8191 34.6237 41.8272 34.6378 41.8307 34.7076C41.836 34.9158 41.8457 35.0681 41.8355 35.2569C41.8889 35.5571 41.9623 35.821 42.0357 36.0848C42.0409 36.327 42.0461 36.5691 42.0114 36.858C41.937 37.2043 41.9024 37.5039 41.864 37.8401C41.8254 38.0915 41.7907 38.3063 41.7265 38.5269C41.6627 38.6828 41.6284 38.8327 41.5929 39.0162C41.6018 39.0922 41.6119 39.1348 41.622 39.1773C41.6087 39.2137 41.5955 39.2502 41.5595 39.3095C41.5221 39.3369 41.5075 39.3413 41.4664 39.3463C41.4311 39.4069 41.4222 39.467 41.4083 39.5591C41.4091 39.6328 41.4151 39.6746 41.4075 39.7422C41.3885 39.8063 41.3832 39.8446 41.3602 39.8783C41.3425 39.8736 41.3108 39.8915 41.2789 39.8961C41.1589 40.1199 41.0709 40.3391 40.9701 40.5898C40.8962 40.7156 40.835 40.81 40.7021 41.0144C40.6731 40.7147 40.6589 40.5683 40.6448 40.4218C40.6662 40.3179 40.6876 40.2139 40.7569 40.0797C40.8743 39.9245 41.0039 39.7993 41.0036 39.6745C41.0008 38.7546 40.9761 37.8346 40.9433 36.9152C40.9409 36.8485 40.8203 36.7861 40.7547 36.7217C40.7437 36.6828 40.7326 36.6439 40.7281 36.5429C40.7214 36.4074 40.7081 36.3341 40.709 36.2338C40.6532 36.0998 40.5833 35.9927 40.5134 35.8856C40.4997 35.8079 40.486 35.7301 40.4686 35.597C40.4114 35.4707 40.3579 35.3998 40.3044 35.3289C40.3015 35.3118 40.2985 35.2948 40.2925 35.2289C40.2794 35.1453 40.2693 35.1106 40.2706 35.0561C40.2399 34.9825 40.1977 34.9288 40.1451 34.8605C40.1166 34.8274 40.0947 34.8205 40.0692 34.8253C40.0655 34.8095 40.0619 34.7937 40.0487 34.7273C39.9628 34.5325 39.8866 34.3883 39.8088 34.2135C39.743 34.1118 39.6787 34.0408 39.6102 33.9423C39.5305 33.8515 39.4552 33.7881 39.3798 33.7247C39.3356 33.6511 39.2914 33.5776 39.2353 33.4533C39.1733 33.3467 39.1233 33.2907 39.0596 33.2195C39.0239 33.184 38.9984 33.1775 38.9555 33.1583C38.8495 33.0262 38.7574 32.9205 38.6757 32.7858C38.6263 32.7199 38.5666 32.6831 38.4915 32.6227C38.4084 32.5384 38.3407 32.4775 38.2738 32.3851C38.1249 32.2185 37.9752 32.0836 37.8116 31.9217C37.4671 31.5567 37.1364 31.2186 36.8044 30.8494C36.5848 30.613 36.3666 30.4078 36.1483 30.2026C36.0948 30.2413 36.0413 30.28 35.9878 30.3186C36.0619 30.4718 36.136 30.625 36.2085 30.8109C36.2184 30.9079 36.2299 30.9722 36.2252 31.0714C36.2941 31.5905 36.3697 32.0764 36.4696 32.5573C36.5015 32.7113 36.5976 32.852 36.6644 32.9988C36.6669 33.0327 36.6694 33.0666 36.6562 33.1512C36.6391 33.337 36.6367 33.4721 36.6364 33.6072C36.6336 34.6569 36.6279 35.7066 36.6305 36.7562C36.6315 37.1576 36.6518 37.5589 36.6634 37.9602C36.6506 38.268 36.6378 38.5759 36.5987 38.947C36.5901 39.4153 36.6078 39.8204 36.6256 40.2255C36.6304 40.3308 36.6352 40.4361 36.6435 40.5992C36.6482 40.7257 36.6494 40.7942 36.6313 40.89C36.6276 41.0659 36.6287 41.2178 36.661 41.3627C36.8984 42.4248 37.4099 43.3607 38.0247 44.2429C38.3471 44.7055 38.7039 45.1442 39.0452 45.5937C39.0246 45.6274 39.004 45.661 38.9834 45.6946C38.8477 45.6666 38.7072 45.6523 38.5772 45.6077C38.2516 45.4961 37.9149 45.4015 37.6114 45.2446C36.9915 44.9242 36.2768 44.681 35.8015 44.2057C33.8112 42.2154 32.7833 39.7613 32.5841 36.9558C32.5706 36.7653 32.5288 36.5677 32.4536 36.3935C32.3966 36.2615 32.2655 36.1615 32.1673 36.0473C32.0636 36.16 31.9086 36.2555 31.8641 36.3881C31.4836 37.523 31.0993 38.6577 30.7681 39.8074C30.6311 40.2832 30.6207 40.7956 30.5527 41.2913Z" fill="white"/>
<path d="M0.367373 22.477C0.367373 22.477 0.374667 22.4429 0.418388 22.435C0.525479 22.3934 0.604015 22.3738 0.649885 22.324C1.13255 21.8003 1.6104 21.2722 2.08861 20.7445C2.2042 20.6169 2.31622 20.4861 2.45598 20.3404C2.82554 20.0878 3.16479 19.8452 3.51325 19.6165C4.7759 18.7881 6.19461 18.3433 7.66232 18.1358C9.02875 17.9427 10.4205 17.9318 11.7999 17.8244C12.0756 17.8029 12.3456 17.7079 12.6183 17.6467C12.7433 17.6431 12.8683 17.6396 13.0533 17.6414C13.1541 17.6495 13.1948 17.6521 13.2769 17.6687C13.5405 17.6845 13.7684 17.7174 13.9834 17.6787C14.1777 17.6437 14.358 17.5303 14.5444 17.4515C14.6093 17.4429 14.6741 17.4343 14.7954 17.4518C15.17 17.3932 15.4881 17.3085 15.8315 17.2214C15.89 17.2123 15.9232 17.2058 15.9902 17.2135C17.0264 16.9221 17.99 16.5486 18.7819 15.7371C18.3888 15.5361 18.1198 15.526 17.8687 15.834C17.7464 15.8453 17.6575 15.8539 17.5314 15.8454C17.2428 15.843 16.9395 15.6928 16.7582 16.0558C16.5684 16.0678 16.416 16.0724 16.2373 16.05C15.4188 16.0122 14.6267 15.9999 13.8346 15.9905C12.5714 15.9755 11.443 15.5769 10.4394 14.8119C10.3644 14.7548 10.2548 14.7431 10.1596 14.709C10.1578 14.7078 10.1557 14.704 10.1633 14.672C10.0184 14.5074 9.86589 14.3749 9.70206 14.2267C9.69071 14.2111 9.67633 14.1752 9.6893 14.1442C9.64449 14.0686 9.5867 14.024 9.53133 13.9744C9.53375 13.9695 9.52405 13.9746 9.53301 13.9422C9.48351 13.8341 9.42503 13.7584 9.34772 13.6547C9.2719 13.4439 9.21493 13.2613 9.15796 13.0787C9.19726 13.0617 9.23655 13.0448 9.27585 13.0279C9.34489 13.0877 9.41394 13.1476 9.47876 13.24C9.82753 13.6112 10.1654 13.9681 10.5413 14.279C10.682 14.3953 10.9112 14.4044 11.1154 14.4665C11.1308 14.4705 11.1543 14.449 11.1543 14.449C11.1543 14.449 11.1527 14.4677 11.1603 14.5023C11.2644 14.5878 11.361 14.6388 11.4883 14.6976C11.5596 14.6983 11.6002 14.691 11.6407 14.6837C11.6785 14.6931 11.7163 14.7026 11.7752 14.7321C11.7962 14.7523 11.8151 14.7818 11.8231 14.8098C11.8934 14.8592 11.9558 14.8806 12.0467 14.9134C12.1707 14.9179 12.2661 14.9109 12.3615 14.9038C12.4516 14.9185 12.5417 14.9332 12.6705 14.9848C12.8664 15.0667 13.0237 15.1118 13.2197 15.1617C13.3864 15.1569 13.5144 15.1472 13.6424 15.1376C14.245 15.1441 14.8477 15.1506 15.5291 15.1683C15.7669 15.1759 15.926 15.1724 16.1103 15.1891C16.3709 15.1315 16.6063 15.0537 16.8417 14.9759C16.9028 14.9646 16.964 14.9533 17.0785 14.9571C17.2086 14.9695 17.2853 14.9668 17.3789 14.9864C17.5352 14.9415 17.6747 14.8743 17.8242 14.7925C17.8343 14.778 17.82 14.7456 17.82 14.7456C17.8591 14.7402 17.8982 14.7349 17.9931 14.737C18.0894 14.7443 18.1299 14.7441 18.1943 14.7595C18.3274 14.6984 18.4364 14.6218 18.5454 14.5453C18.5454 14.5453 18.5811 14.5285 18.6342 14.5353C18.7849 14.5268 18.8825 14.5115 19.008 14.5055C19.0865 14.4653 19.1371 14.416 19.2071 14.3585C19.2955 14.3361 19.3646 14.3219 19.4614 14.3179C19.5383 14.2795 19.5876 14.2309 19.6645 14.1652C19.818 14.1111 19.9438 14.0739 20.0968 14.047C20.1704 14.0067 20.2168 13.9561 20.2926 13.8998C20.3597 13.8811 20.3973 13.8681 20.4622 13.8651C20.5412 13.8296 20.593 13.7841 20.6565 13.7232C20.6867 13.6863 20.692 13.662 20.6841 13.6347C20.7138 13.6247 20.7436 13.6147 20.8106 13.6154C20.8926 13.6171 20.9373 13.6079 21.0102 13.606C21.0867 13.5631 21.135 13.5128 21.2113 13.4582C21.275 13.4415 21.3106 13.4292 21.3743 13.425C21.4517 13.3836 21.5011 13.3342 21.5579 13.2651C21.5653 13.2455 21.5479 13.2074 21.5479 13.2074C21.5828 13.1954 21.6176 13.1834 21.7044 13.173C21.8218 13.1124 21.8873 13.0503 21.9528 12.9881C21.9847 12.9748 22.0167 12.9614 22.1053 12.9432C22.4362 12.797 22.7104 12.6556 23.0127 12.5234C23.0874 12.4809 23.134 12.4293 23.1814 12.3785C23.1823 12.3793 23.1813 12.3772 23.2122 12.3775C23.3194 12.3226 23.3957 12.2675 23.4987 12.1967C23.8112 11.9884 24.0962 11.7944 24.3831 11.6033C26.1821 10.4047 27.8298 9.05422 28.8463 7.08574C29.5345 5.75303 29.5883 4.41255 28.8147 3.09029C28.1645 1.9788 27.2025 1.18913 26.1203 0.528168C25.991 0.44919 25.8712 0.35465 25.7469 0.267324C25.7667 0.217594 25.7864 0.167864 25.8061 0.118134C26.1719 0.20453 26.5342 0.311986 26.9042 0.373313C27.9484 0.546387 28.913 0.935176 29.8277 1.44736C31.337 2.29249 32.6463 3.38422 33.4674 4.92283C33.9131 5.7579 34.3036 6.68242 34.4392 7.60759C34.6054 8.74186 34.5997 9.91816 34.2408 11.0634C33.9498 11.9918 33.5376 12.8477 32.9655 13.6194C31.9809 14.9473 30.6853 15.9325 29.2993 16.8046C26.6264 18.4864 23.7115 19.6548 20.7912 20.8126C20.4998 20.9281 20.2337 21.1073 19.9281 21.2614C19.8285 21.2861 19.7567 21.3063 19.6524 21.314C19.517 21.3723 19.4142 21.4432 19.3111 21.5181C19.3109 21.522 19.3186 21.5237 19.2895 21.5142C19.2213 21.5152 19.1822 21.5257 19.1223 21.5203C18.8362 21.6567 18.5709 21.8089 18.2808 21.966C18.2246 21.9825 18.1931 21.9942 18.1285 21.9946C17.892 22.0964 17.6886 22.2094 17.4506 22.3256C17.141 22.4826 16.8659 22.6363 16.5624 22.7974C16.4669 22.8445 16.3998 22.8842 16.3025 22.9196C16.1417 23.0283 16.0111 23.1413 15.8766 23.2587C15.8727 23.2631 15.882 23.2704 15.8494 23.2608C15.776 23.2693 15.7352 23.2873 15.6678 23.2963C15.5511 23.3749 15.4611 23.4624 15.3466 23.5682C15.2412 23.6478 15.1604 23.709 15.0513 23.7549C14.867 23.8851 14.711 24.0305 14.5282 24.1899C14.3809 24.3071 14.2606 24.4103 14.108 24.5081C13.7804 24.8149 13.4851 25.127 13.1652 25.4591C12.8793 25.8246 12.6182 26.1701 12.3302 26.5317C12.1961 26.7265 12.0888 26.9053 11.9565 27.0943C11.9006 27.148 11.8698 27.1915 11.8145 27.227C11.6621 27.4914 11.5341 27.7638 11.3956 28.0597C11.3753 28.1161 11.3656 28.1489 11.3255 28.1915C11.25 28.2939 11.2048 28.3866 11.1354 28.4931C11.0568 28.6817 11.0022 28.8565 10.9377 29.0554C10.9167 29.1126 10.9056 29.1457 10.8676 29.1794C10.8116 29.2821 10.7826 29.3841 10.7452 29.5109C10.7296 29.5697 10.7223 29.6038 10.6871 29.6517C10.5411 30.0896 10.4231 30.5136 10.305 30.9375C10.2933 30.9991 10.2815 31.0607 10.2368 31.1665C10.1483 31.542 10.0929 31.8735 10.0374 32.2049C10.0307 32.2457 10.0239 32.2865 9.98454 32.3634C9.90597 32.6395 9.86002 32.8795 9.80737 33.15C9.81088 33.2196 9.82108 33.2587 9.83129 33.2979C9.81635 33.4288 9.80142 33.5596 9.7567 33.7387C9.59661 33.9417 9.4663 34.0964 9.336 34.2512C9.336 34.2512 9.33593 34.237 9.34617 34.1991C9.30101 34.0509 9.2456 33.9405 9.18042 33.8194C9.17065 33.8088 9.14574 33.8234 9.14574 33.8234C9.13238 33.7586 9.11903 33.6939 9.11948 33.5831C9.00337 33.2375 8.87347 32.938 8.7331 32.6321C8.72263 32.6257 8.7027 32.64 8.7027 32.64C8.6959 32.6005 8.6891 32.5609 8.685 32.4662C8.68068 32.3732 8.67368 32.3353 8.68038 32.2714C8.56142 31.921 8.42875 31.5968 8.28576 31.2669C8.27544 31.2613 8.25657 31.2753 8.25657 31.2753C8.24517 31.2104 8.23377 31.1454 8.22618 31.0205C8.22354 30.9197 8.21708 30.8789 8.22596 30.8148C8.16989 30.6537 8.09848 30.5158 8.02542 30.3477C8.01731 30.2777 8.01086 30.238 8.02653 30.1756C7.96448 29.8558 7.88031 29.5586 7.79613 29.2613C7.79136 29.1981 7.78659 29.1349 7.78908 29.0073C7.78922 28.8482 7.78209 28.7534 7.79085 28.6256C7.79976 27.8239 7.79277 27.0552 7.79438 26.2525C7.79827 26.126 7.79357 26.0336 7.79529 25.9081C7.81131 25.7857 7.8209 25.6964 7.85942 25.5972C7.93214 25.4607 7.97594 25.3342 8.03094 25.176C8.03506 25.1015 8.02798 25.0586 8.03006 24.995C8.03922 24.9743 8.04676 24.9296 8.07792 24.9249C8.14905 24.7929 8.18901 24.6657 8.24138 24.504C8.29299 24.3532 8.33218 24.237 8.39676 24.115C8.43294 24.0614 8.44371 24.0136 8.46724 23.9474C8.49339 23.9021 8.50271 23.8738 8.53717 23.8426C8.61488 23.7496 8.66337 23.6582 8.73 23.5458C8.75787 23.5093 8.7676 23.4936 8.80761 23.4738C8.87011 23.4059 8.90234 23.342 8.94709 23.2494C9.096 22.9859 9.23241 22.7513 9.38175 22.5088C9.39469 22.5008 9.42077 22.4853 9.45615 22.4865C9.53714 22.4086 9.58276 22.3295 9.63218 22.2342C9.63597 22.2181 9.65578 22.1914 9.68935 22.195C9.85594 22.0466 9.98897 21.8947 10.1247 21.7404C10.1273 21.7379 10.1323 21.7326 10.1576 21.7378C10.2149 21.6912 10.2469 21.6393 10.2845 21.5667C10.3044 21.5181 10.3042 21.4903 10.2931 21.4577C10.2968 21.4526 10.3059 21.4441 10.327 21.4479C10.3752 21.4421 10.4021 21.4324 10.4469 21.4393C10.5044 21.4015 10.544 21.3471 10.5856 21.2915C10.5877 21.2903 10.5907 21.2866 10.6219 21.2901C10.7042 21.2149 10.7553 21.1362 10.8075 21.0556C10.8085 21.0538 10.8124 21.0521 10.8442 21.0506C11.2039 20.8169 11.5451 20.6007 11.8536 20.3451C11.9887 20.2332 12.1299 20.031 11.7661 19.9332C11.6337 19.9254 11.5375 19.9181 11.4262 19.8798C10.245 19.8544 9.0789 19.8563 7.91303 19.8743C7.83895 19.8755 7.76682 20.0025 7.69378 20.071C7.62933 20.0826 7.56488 20.0942 7.44647 20.1001C7.29981 20.0925 7.2071 20.0908 7.07553 20.0711C6.6127 19.9564 6.24348 20.0982 5.86774 20.3205C5.81162 20.3291 5.7794 20.333 5.71403 20.3221C5.53377 20.3766 5.38665 20.4458 5.21291 20.5265C5.14804 20.5424 5.10982 20.5467 5.05055 20.5265C4.66663 20.6117 4.29649 20.7027 3.94383 20.839C3.75704 20.9111 3.60064 21.062 3.40925 21.1887C3.35645 21.2054 3.32491 21.2108 3.25804 21.2044C2.68365 21.5164 2.14459 21.8403 1.59177 22.185C1.53922 22.2366 1.50045 22.2674 1.42787 22.291C1.22499 22.4299 1.0559 22.576 0.872538 22.7312C0.858263 22.7403 0.826481 22.7521 0.794012 22.7446C0.56047 22.8517 0.359397 22.9664 0.157726 23.0804C0.157129 23.0797 0.155801 23.0786 0.15908 23.0455C0.230697 22.8339 0.299035 22.6554 0.367373 22.477Z" fill="white"/>
<path d="M17.2911 9.06814C17.5684 9.07426 17.8457 9.08038 18.187 9.09884C18.3865 9.10483 18.522 9.09848 18.6575 9.09213C18.6884 9.10233 18.7193 9.11254 18.7884 9.14647C19.0812 9.32295 19.3357 9.47569 19.5902 9.62844C19.5865 9.70124 19.5827 9.77405 19.555 9.89011C19.283 10.1873 19.035 10.4412 18.787 10.6951C18.787 10.6951 18.7574 10.6919 18.7215 10.6955C18.6393 10.7231 18.5931 10.747 18.5141 10.776C18.3879 10.8306 18.2943 10.88 18.2008 10.9294C18.1599 10.9315 18.119 10.9335 18.0225 10.9371C17.8341 10.9984 17.7013 11.058 17.5685 11.1177C17.471 11.1222 17.3734 11.1267 17.2091 11.1302C16.7958 11.2056 16.4491 11.282 16.0649 11.3505C15.9016 11.3594 15.7759 11.3763 15.6144 11.3808C15.1476 11.4373 14.7167 11.5061 14.2548 11.5657C14.1829 11.5676 14.142 11.5787 14.0663 11.5763C13.7404 11.6292 13.4492 11.6957 13.158 11.7622C13.126 11.7577 13.0941 11.7532 13.0181 11.7361C12.8369 11.7483 12.6997 11.773 12.5626 11.7978C12.5221 11.7963 12.4817 11.7948 12.3789 11.7913C12.2466 11.8038 12.1766 11.8183 12.0751 11.8209C11.8847 11.8686 11.7258 11.9283 11.5669 11.9879C11.4984 11.9917 11.4298 11.9954 11.2978 11.9985C11.1577 11.9229 11.0811 11.8479 11.0271 11.7558C11.0556 11.6854 11.0616 11.6322 11.0676 11.5789C11.1179 11.5258 11.1682 11.4727 11.2493 11.3798C11.3389 11.2421 11.3976 11.1444 11.4564 11.0466C11.4813 11.0151 11.5062 10.9837 11.5689 10.9242C11.6503 10.818 11.6939 10.7398 11.7376 10.6615C11.7376 10.6615 11.7427 10.6625 11.7666 10.674C11.8271 10.624 11.8636 10.5624 11.9001 10.5009C11.9815 10.423 12.0629 10.345 12.1718 10.2328C12.3304 10.0551 12.4613 9.91164 12.622 9.76653C12.6865 9.74588 12.7212 9.7269 12.788 9.7073C13.1108 9.47304 13.4014 9.23941 13.6801 8.98902C13.6681 8.97226 13.6934 9.00496 13.7251 9.00052C14.1102 8.80441 14.4579 8.60073 14.8189 8.42444C15.1754 8.25037 15.5454 8.10398 15.9095 7.94544C16.017 7.94761 16.1244 7.94977 16.2914 7.96159C16.5475 7.95542 16.744 7.93959 16.9406 7.92375C17.0782 7.93562 17.2159 7.94749 17.4069 7.97852C17.7778 8.15771 18.0954 8.31775 18.5143 8.52892C18.2885 8.61351 18.1961 8.6481 18.1038 8.68268C17.9823 8.67566 17.8607 8.66864 17.666 8.65535C16.8932 8.62033 16.2525 8.78566 15.6963 9.23684C16.2279 9.1806 16.7595 9.12437 17.2911 9.06814Z" fill="#3DBE58"/>
<path d="M4.8072 11.7203C5.03601 11.7302 5.26482 11.7401 5.54318 11.7793C5.94545 12.0543 5.92351 12.4208 5.81022 12.7442C5.70112 13.0557 5.4664 13.3048 5.07475 13.3076C4.65917 13.3105 4.24368 13.3273 3.82815 13.338C3.7388 13.3261 3.64944 13.3142 3.51518 13.2774C2.9973 13.0884 2.52434 12.9245 1.93867 12.7215C2.19413 12.5977 2.35901 12.5192 2.52256 12.4381C2.68882 12.3556 2.85378 12.2705 3.0193 12.1866C3.05937 12.1866 3.09943 12.1866 3.20072 12.1884C3.77702 12.0335 4.29211 11.8769 4.8072 11.7203Z" fill="white"/>
<path d="M1.40851 16.0417C1.24351 16.0289 1.11183 16.0101 0.977758 15.9909C1.10445 15.5756 2.07411 14.913 2.44411 14.996C2.54236 15.018 2.68092 15.1247 2.69173 15.207C2.70611 15.3164 2.64678 15.4968 2.56091 15.5468C2.28058 15.7101 1.97382 15.828 1.66036 15.9921C1.57628 16.0259 1.50905 16.0308 1.40851 16.0417Z" fill="white"/>
<path d="M13.4697 0.290471C13.9281 0.471055 14.3604 0.649546 14.8284 0.826681C14.9304 0.863304 14.9967 0.901284 15.0912 0.945724C15.421 1.13981 15.7425 1.30202 16.0202 1.52008C16.7113 2.06283 17.3825 2.63102 18.0918 3.19338C18.1219 3.19777 18.1238 3.19884 18.1236 3.22738C18.1764 3.30244 18.2294 3.34896 18.2823 3.39549C18.2953 3.426 18.3083 3.45652 18.3258 3.54135C18.4645 3.83165 18.5987 4.06763 18.7328 4.30361C18.7384 4.33783 18.744 4.37205 18.7358 4.4599C18.7198 4.96912 18.7177 5.4247 18.7156 5.88028C18.6724 5.88995 18.6293 5.89963 18.5861 5.9093C18.2382 5.43147 17.8903 4.95365 17.5341 4.44816C17.3974 4.1874 17.2689 3.9543 17.1276 3.69456C17.0182 3.55677 16.9215 3.44562 16.8249 3.33447C16.8003 3.34942 16.7758 3.36438 16.7512 3.37933C16.8162 3.49123 16.8812 3.60314 16.9498 3.75185C17.0855 4.08134 17.2175 4.37403 17.3564 4.6985C17.4373 4.90979 17.5114 5.08928 17.5836 5.30014C17.6357 5.4096 17.6898 5.4877 17.7477 5.58323C17.7514 5.60066 17.7636 5.6342 17.7623 5.66638C17.8424 5.83289 17.9238 5.9672 18.0053 6.10152C18.0409 6.16843 18.0765 6.23535 18.1111 6.36624C18.1154 6.71656 18.1206 7.0029 18.1259 7.28924C18.0272 7.2871 17.9286 7.28496 17.7715 7.26142C17.113 7.10627 16.5779 6.85883 16.1701 6.37809C15.9267 6.09118 15.6735 5.81255 15.4248 5.53019C15.3298 5.31022 15.2348 5.09024 15.125 4.84012C14.9665 4.39441 14.8613 3.96011 14.6709 3.56716C14.2753 2.75097 13.8345 1.95671 13.3812 1.14876C13.2806 1.04945 13.211 0.954816 13.1268 0.833367C13.072 0.673667 13.0319 0.540782 12.9781 0.36279C13.0808 0.342734 13.1844 0.322493 13.3145 0.284381C13.3752 0.273799 13.4093 0.281088 13.4697 0.290471Z" fill="#3DBE58"/>
<path d="M21.941 7.79358C21.7675 7.94177 21.6163 8.06643 21.449 8.21575C21.3822 8.27224 21.3326 8.32949 21.2806 8.33167C20.996 8.34361 20.6331 8.44669 20.4511 8.31136C20.3103 8.2067 20.3191 7.77329 20.3966 7.52892C20.5627 7.0052 20.8162 6.50922 21.0734 5.96088C21.168 5.76641 21.2249 5.61344 21.2719 5.45748C21.2736 5.45174 21.1455 5.3871 21.1337 5.40024C21.0517 5.49095 20.9845 5.59504 20.9126 5.69484C20.6158 6.11237 20.3189 6.52991 19.9882 6.99502C19.8254 6.4034 20.0374 5.92338 20.2574 5.46587C20.6185 4.71504 21.2725 4.21977 21.9082 3.68182C21.9805 3.60204 22.0452 3.54885 22.1358 3.49131C22.4083 3.39105 22.658 3.3027 22.9005 3.19773C23.4972 2.93946 24.0832 2.64912 24.8594 2.57544C24.0563 4.06477 23.3061 5.45602 22.5584 6.88067C22.561 6.91408 22.562 6.91622 22.5314 6.92181C22.4083 7.10496 22.3157 7.2825 22.2232 7.46005C22.2156 7.47426 22.208 7.48847 22.2026 7.52823C22.2049 7.55379 22.1995 7.55252 22.1995 7.55252C22.1208 7.62503 22.042 7.69754 21.941 7.79358Z" fill="#3DBE58"/>
</svg>
