<svg width="137" height="41" viewBox="0 0 137 41" fill="none" xmlns="http://www.w3.org/2000/svg">
<path d="M61.3301 31H59.0039V22.5625H61.3301V26.248H64.4121V22.5625H66.7383V31H64.4121V27.3203H61.3301V31Z" fill="#3DBE58"/>
<path d="M75.2051 31H73.2246V30.1914C72.9902 30.5117 72.707 30.75 72.375 30.9062C72.0469 31.0586 71.6855 31.1348 71.291 31.1348C70.7754 31.1348 70.3145 31.043 69.9082 30.8594C69.502 30.6758 69.1582 30.4258 68.877 30.1094C68.5957 29.7891 68.3809 29.4141 68.2324 28.9844C68.084 28.5547 68.0098 28.0938 68.0098 27.6016C68.0098 27.1094 68.084 26.6484 68.2324 26.2188C68.3809 25.7891 68.5957 25.416 68.877 25.0996C69.1582 24.7793 69.502 24.5273 69.9082 24.3438C70.3145 24.1602 70.7754 24.0684 71.291 24.0684C71.5527 24.0684 71.8008 24.1074 72.0352 24.1855C72.2734 24.2637 72.4902 24.375 72.6855 24.5195C72.8848 24.6602 73.0586 24.832 73.207 25.0352C73.3594 25.2344 73.4785 25.457 73.5645 25.7031L74.4434 24.2324H75.2051V31ZM73.2129 27.6016C73.2129 27.4258 73.2031 27.2402 73.1836 27.0449C73.168 26.8496 73.1387 26.6562 73.0957 26.4648C73.0527 26.2734 72.9922 26.0918 72.9141 25.9199C72.8398 25.7441 72.7422 25.5898 72.6211 25.457C72.5039 25.3203 72.3613 25.2129 72.1934 25.1348C72.0254 25.0566 71.8301 25.0176 71.6074 25.0176C71.3848 25.0176 71.1914 25.0586 71.0273 25.1406C70.8633 25.2188 70.7227 25.3262 70.6055 25.4629C70.4883 25.5957 70.3906 25.75 70.3125 25.9258C70.2383 26.1016 70.1797 26.2852 70.1367 26.4766C70.0938 26.668 70.0625 26.8613 70.043 27.0566C70.0273 27.248 70.0195 27.4297 70.0195 27.6016C70.0195 27.7734 70.0273 27.957 70.043 28.1523C70.0625 28.3477 70.0938 28.541 70.1367 28.7324C70.1797 28.9238 70.2383 29.1074 70.3125 29.2832C70.3906 29.459 70.4883 29.6152 70.6055 29.752C70.7227 29.8848 70.8633 29.9922 71.0273 30.0742C71.1914 30.1523 71.3848 30.1914 71.6074 30.1914C71.8105 30.1914 71.9902 30.1504 72.1465 30.0684C72.3066 29.9824 72.4453 29.8691 72.5625 29.7285C72.6836 29.5879 72.7852 29.4277 72.8672 29.248C72.9492 29.0684 73.0156 28.8828 73.0664 28.6914C73.1172 28.5 73.1543 28.3105 73.1777 28.123C73.2012 27.9316 73.2129 27.7578 73.2129 27.6016ZM78.9551 22.5977C78.9551 22.7461 78.9258 22.8867 78.8672 23.0195C78.8125 23.1523 78.7363 23.2676 78.6387 23.3652C78.541 23.4629 78.4258 23.541 78.293 23.5996C78.1641 23.6543 78.0254 23.6816 77.877 23.6816C77.7285 23.6816 77.5879 23.6543 77.4551 23.5996C77.3223 23.541 77.207 23.4629 77.1094 23.3652C77.0117 23.2676 76.9336 23.1523 76.875 23.0195C76.8203 22.8867 76.793 22.7461 76.793 22.5977C76.793 22.4492 76.8203 22.3105 76.875 22.1816C76.9336 22.0488 77.0117 21.9336 77.1094 21.8359C77.207 21.7383 77.3223 21.6621 77.4551 21.6074C77.5879 21.5488 77.7285 21.5195 77.877 21.5195C78.0254 21.5195 78.1641 21.5488 78.293 21.6074C78.4258 21.6621 78.541 21.7383 78.6387 21.8359C78.7363 21.9336 78.8125 22.0488 78.8672 22.1816C78.9258 22.3105 78.9551 22.4492 78.9551 22.5977ZM78.8672 29.043C78.8672 29.5078 78.8086 29.9805 78.6914 30.4609C78.5742 30.9375 78.4082 31.3984 78.1934 31.8438C77.9824 32.293 77.7285 32.7129 77.4316 33.1035C77.1387 33.498 76.8145 33.8379 76.459 34.123L75.6855 33.6543C75.8848 33.3809 76.0586 33.0703 76.207 32.7227C76.3555 32.3789 76.4785 32.0215 76.5762 31.6504C76.6777 31.2793 76.7539 30.9062 76.8047 30.5312C76.8555 30.1523 76.8809 29.793 76.8809 29.4531V24.2324H78.8672V29.043ZM86.3203 28.8379C86.3203 29.1348 86.2773 29.3984 86.1914 29.6289C86.1055 29.8594 85.9883 30.0605 85.8398 30.2324C85.6914 30.4004 85.5156 30.543 85.3125 30.6602C85.1094 30.7734 84.8906 30.8652 84.6562 30.9355C84.4258 31.0059 84.1836 31.0566 83.9297 31.0879C83.6758 31.1191 83.4238 31.1348 83.1738 31.1348C82.8379 31.1348 82.541 31.1133 82.2832 31.0703C82.0254 31.0273 81.7793 30.959 81.5449 30.8652C81.3105 30.7676 81.0762 30.6426 80.8418 30.4902C80.6113 30.3379 80.3535 30.1523 80.0684 29.9336L81.2227 28.9902C81.3281 29.1895 81.4668 29.3711 81.6387 29.5352C81.8145 29.6953 81.9961 29.834 82.1836 29.9512C82.3711 30.0684 82.5527 30.1582 82.7285 30.2207C82.9043 30.2832 83.0469 30.3145 83.1562 30.3145C83.2461 30.3145 83.3477 30.3125 83.4609 30.3086C83.5742 30.3008 83.6895 30.2891 83.8066 30.2734C83.9238 30.2539 84.0391 30.2266 84.1523 30.1914C84.2656 30.1562 84.3652 30.1094 84.4512 30.0508C84.541 29.9883 84.6113 29.9121 84.6621 29.8223C84.7168 29.7285 84.7441 29.6172 84.7441 29.4883C84.7441 29.3555 84.709 29.2402 84.6387 29.1426C84.5723 29.041 84.4844 28.9531 84.375 28.8789C84.2656 28.8047 84.1406 28.7422 84 28.6914C83.8594 28.6406 83.7168 28.5957 83.5723 28.5566C83.4316 28.5176 83.2949 28.4844 83.1621 28.457C83.0293 28.4258 82.9141 28.3965 82.8164 28.3691C82.6367 28.3184 82.4473 28.2676 82.248 28.2168C82.0488 28.1621 81.8516 28.1016 81.6562 28.0352C81.4609 27.9648 81.2734 27.8828 81.0938 27.7891C80.918 27.6953 80.7617 27.584 80.625 27.4551C80.4922 27.3223 80.3848 27.168 80.3027 26.9922C80.2246 26.8125 80.1855 26.6035 80.1855 26.3652C80.1855 25.9277 80.2715 25.5625 80.4434 25.2695C80.6191 24.9727 80.8496 24.7363 81.1348 24.5605C81.4199 24.3809 81.7441 24.2539 82.1074 24.1797C82.4707 24.1055 82.8398 24.0684 83.2148 24.0684C83.4727 24.0684 83.7441 24.0957 84.0293 24.1504C84.3145 24.2012 84.5918 24.2793 84.8613 24.3848C85.1309 24.4863 85.3828 24.6113 85.6172 24.7598C85.8516 24.9082 86.0469 25.0781 86.2031 25.2695L85.0488 26.2188C84.9629 25.9844 84.8496 25.7832 84.709 25.6152C84.5723 25.4473 84.4219 25.3105 84.2578 25.2051C84.0977 25.0957 83.9316 25.0156 83.7598 24.9648C83.5918 24.9141 83.4355 24.8887 83.291 24.8887C83.1504 24.8887 82.9922 24.8945 82.8164 24.9062C82.6406 24.918 82.4746 24.9512 82.3184 25.0059C82.166 25.0605 82.0352 25.1445 81.9258 25.2578C81.8203 25.3672 81.7676 25.5195 81.7676 25.7148C81.7676 25.8555 81.7988 25.9766 81.8613 26.0781C81.9277 26.1758 82.0137 26.2617 82.1191 26.3359C82.2246 26.4062 82.3438 26.4668 82.4766 26.5176C82.6133 26.5645 82.752 26.6074 82.8926 26.6465C83.0332 26.6816 83.1699 26.7129 83.3027 26.7402C83.4355 26.7676 83.5547 26.7969 83.6602 26.8281C83.8398 26.8789 84.0293 26.9316 84.2285 26.9863C84.4316 27.0371 84.6309 27.0977 84.8262 27.168C85.0215 27.2344 85.209 27.3145 85.3887 27.4082C85.5723 27.498 85.7324 27.6094 85.8691 27.7422C86.0059 27.875 86.1152 28.0312 86.1973 28.2109C86.2793 28.3867 86.3203 28.5957 86.3203 28.8379ZM92.9355 31H87.2051V30.2148L90.75 25.0176H87.2051V24.2324H92.9355V25.0176L89.3906 30.2148H92.9355V31ZM100.857 31H98.877V30.1914C98.6426 30.5117 98.3594 30.75 98.0273 30.9062C97.6992 31.0586 97.3379 31.1348 96.9434 31.1348C96.4277 31.1348 95.9668 31.043 95.5605 30.8594C95.1543 30.6758 94.8105 30.4258 94.5293 30.1094C94.248 29.7891 94.0332 29.4141 93.8848 28.9844C93.7363 28.5547 93.6621 28.0938 93.6621 27.6016C93.6621 27.1094 93.7363 26.6484 93.8848 26.2188C94.0332 25.7891 94.248 25.416 94.5293 25.0996C94.8105 24.7793 95.1543 24.5273 95.5605 24.3438C95.9668 24.1602 96.4277 24.0684 96.9434 24.0684C97.2051 24.0684 97.4531 24.1074 97.6875 24.1855C97.9258 24.2637 98.1426 24.375 98.3379 24.5195C98.5371 24.6602 98.7109 24.832 98.8594 25.0352C99.0117 25.2344 99.1309 25.457 99.2168 25.7031L100.096 24.2324H100.857V31ZM98.8652 27.6016C98.8652 27.4258 98.8555 27.2402 98.8359 27.0449C98.8203 26.8496 98.791 26.6562 98.748 26.4648C98.7051 26.2734 98.6445 26.0918 98.5664 25.9199C98.4922 25.7441 98.3945 25.5898 98.2734 25.457C98.1562 25.3203 98.0137 25.2129 97.8457 25.1348C97.6777 25.0566 97.4824 25.0176 97.2598 25.0176C97.0371 25.0176 96.8438 25.0586 96.6797 25.1406C96.5156 25.2188 96.375 25.3262 96.2578 25.4629C96.1406 25.5957 96.043 25.75 95.9648 25.9258C95.8906 26.1016 95.832 26.2852 95.7891 26.4766C95.7461 26.668 95.7148 26.8613 95.6953 27.0566C95.6797 27.248 95.6719 27.4297 95.6719 27.6016C95.6719 27.7734 95.6797 27.957 95.6953 28.1523C95.7148 28.3477 95.7461 28.541 95.7891 28.7324C95.832 28.9238 95.8906 29.1074 95.9648 29.2832C96.043 29.459 96.1406 29.6152 96.2578 29.752C96.375 29.8848 96.5156 29.9922 96.6797 30.0742C96.8438 30.1523 97.0371 30.1914 97.2598 30.1914C97.4629 30.1914 97.6426 30.1504 97.7988 30.0684C97.959 29.9824 98.0977 29.8691 98.2148 29.7285C98.3359 29.5879 98.4375 29.4277 98.5195 29.248C98.6016 29.0684 98.668 28.8828 98.7188 28.6914C98.7695 28.5 98.8066 28.3105 98.8301 28.123C98.8535 27.9316 98.8652 27.7578 98.8652 27.6016ZM104.496 31H102.516V21.1152H103.277L104.496 23.1719V31ZM113.297 27.6016C113.297 27.9531 113.25 28.2832 113.156 28.5918C113.062 28.9004 112.932 29.1855 112.764 29.4473C112.6 29.709 112.4 29.9453 112.166 30.1562C111.932 30.3633 111.674 30.5391 111.393 30.6836C111.115 30.8281 110.816 30.9395 110.496 31.0176C110.18 31.0957 109.854 31.1348 109.518 31.1348C109.182 31.1348 108.855 31.0957 108.539 31.0176C108.223 30.9395 107.924 30.8281 107.643 30.6836C107.365 30.5391 107.109 30.3633 106.875 30.1562C106.641 29.9453 106.439 29.709 106.271 29.4473C106.107 29.1855 105.979 28.9004 105.885 28.5918C105.791 28.2793 105.744 27.9492 105.744 27.6016C105.744 27.2539 105.791 26.9258 105.885 26.6172C105.979 26.3047 106.107 26.0176 106.271 25.7559C106.439 25.4941 106.641 25.2598 106.875 25.0527C107.109 24.8418 107.365 24.6641 107.643 24.5195C107.924 24.375 108.223 24.2637 108.539 24.1855C108.855 24.1074 109.182 24.0684 109.518 24.0684C109.854 24.0684 110.18 24.1074 110.496 24.1855C110.816 24.2637 111.115 24.375 111.393 24.5195C111.674 24.6641 111.932 24.8418 112.166 25.0527C112.4 25.2598 112.6 25.4941 112.764 25.7559C112.932 26.0176 113.062 26.3047 113.156 26.6172C113.25 26.9258 113.297 27.2539 113.297 27.6016ZM111.281 27.6016C111.281 27.4141 111.27 27.2168 111.246 27.0098C111.227 26.7988 111.191 26.5938 111.141 26.3945C111.09 26.1914 111.02 25.998 110.93 25.8145C110.844 25.627 110.736 25.4648 110.607 25.3281C110.479 25.1875 110.324 25.0762 110.145 24.9941C109.965 24.9082 109.756 24.8652 109.518 24.8652C109.291 24.8652 109.09 24.9082 108.914 24.9941C108.738 25.0801 108.584 25.1953 108.451 25.3398C108.322 25.4805 108.213 25.6445 108.123 25.832C108.037 26.0195 107.967 26.2148 107.912 26.418C107.857 26.6172 107.818 26.8203 107.795 27.0273C107.771 27.2305 107.76 27.4219 107.76 27.6016C107.76 27.7812 107.771 27.9746 107.795 28.1816C107.818 28.3848 107.857 28.5879 107.912 28.791C107.967 28.9941 108.037 29.1895 108.123 29.377C108.213 29.5605 108.322 29.7246 108.451 29.8691C108.584 30.0098 108.738 30.123 108.914 30.209C109.09 30.2949 109.291 30.3379 109.518 30.3379C109.752 30.3379 109.959 30.2969 110.139 30.2148C110.318 30.1289 110.473 30.0156 110.602 29.875C110.734 29.7344 110.844 29.5723 110.93 29.3887C111.016 29.2051 111.084 29.0117 111.135 28.8086C111.189 28.6055 111.227 28.4004 111.246 28.1934C111.27 27.9863 111.281 27.7891 111.281 27.6016ZM121.471 27.1211C121.471 27.5781 121.414 28.0547 121.301 28.5508C121.191 29.0469 121.037 29.5332 120.838 30.0098C120.639 30.4863 120.4 30.9336 120.123 31.3516C119.846 31.7734 119.541 32.1367 119.209 32.4414L118.465 32.0371C118.57 31.8418 118.67 31.623 118.764 31.3809C118.857 31.1387 118.941 30.8828 119.016 30.6133C119.094 30.3398 119.162 30.0586 119.221 29.7695C119.283 29.4805 119.334 29.1953 119.373 28.9141C119.416 28.6289 119.447 28.3535 119.467 28.0879C119.49 27.8184 119.502 27.5684 119.502 27.3379C119.502 27.1855 119.496 27.0234 119.484 26.8516C119.473 26.6758 119.447 26.502 119.408 26.3301C119.373 26.1543 119.324 25.9863 119.262 25.8262C119.199 25.666 119.115 25.5254 119.01 25.4043C118.908 25.2832 118.783 25.1855 118.635 25.1113C118.49 25.0371 118.318 25 118.119 25C117.924 25 117.75 25.0449 117.598 25.1348C117.445 25.2207 117.311 25.3359 117.193 25.4805C117.076 25.6211 116.975 25.7832 116.889 25.9668C116.807 26.1504 116.738 26.3398 116.684 26.5352C116.633 26.7266 116.596 26.916 116.572 27.1035C116.549 27.291 116.537 27.459 116.537 27.6074V31H114.551V24.2324H115.312L116.221 25.8086C116.33 25.5469 116.467 25.3086 116.631 25.0938C116.795 24.8789 116.98 24.6953 117.188 24.543C117.395 24.3906 117.623 24.2734 117.873 24.1914C118.127 24.1094 118.4 24.0684 118.693 24.0684C119.162 24.0684 119.57 24.1445 119.918 24.2969C120.266 24.4492 120.555 24.6621 120.785 24.9355C121.016 25.2051 121.188 25.5273 121.301 25.9023C121.414 26.2734 121.471 26.6797 121.471 27.1211Z" fill="white"/>
<path d="M43.9551 13.709C43.9551 13.9473 43.916 14.1699 43.8379 14.377C43.7598 14.584 43.6523 14.7734 43.5156 14.9453C43.3789 15.1133 43.2188 15.2637 43.0352 15.3965C42.8555 15.5293 42.6602 15.6406 42.4492 15.7305C42.2422 15.8203 42.0273 15.8887 41.8047 15.9355C41.582 15.9785 41.3633 16 41.1484 16H36.1855V7.5625H40.7207C40.9199 7.5625 41.1289 7.57812 41.3477 7.60938C41.5664 7.63672 41.7793 7.68164 41.9863 7.74414C42.1973 7.80664 42.3965 7.88867 42.584 7.99023C42.7754 8.0918 42.9414 8.2168 43.082 8.36523C43.2266 8.50977 43.3398 8.67773 43.4219 8.86914C43.5078 9.06055 43.5508 9.2793 43.5508 9.52539C43.5508 9.75977 43.5039 9.97266 43.4102 10.1641C43.3164 10.3555 43.1895 10.5273 43.0293 10.6797C42.873 10.8281 42.6914 10.9609 42.4844 11.0781C42.2812 11.1914 42.0664 11.291 41.8398 11.377C42.125 11.4551 42.3945 11.5586 42.6484 11.6875C42.9062 11.8164 43.1309 11.9746 43.3223 12.1621C43.5176 12.3496 43.6719 12.5723 43.7852 12.8301C43.8984 13.084 43.9551 13.377 43.9551 13.709ZM41.1895 9.73047C41.1895 9.25391 41.0625 8.90625 40.8086 8.6875C40.5586 8.46875 40.2012 8.35938 39.7363 8.35938H38.5117V11.0957H39.5371C39.748 11.0957 39.9531 11.0703 40.1523 11.0195C40.3516 10.9648 40.5273 10.8828 40.6797 10.7734C40.8359 10.6602 40.959 10.5176 41.0488 10.3457C41.1426 10.1738 41.1895 9.96875 41.1895 9.73047ZM41.5996 13.5625C41.5996 13.332 41.5703 13.1172 41.5117 12.918C41.4531 12.7148 41.3633 12.541 41.2422 12.3965C41.1211 12.248 40.9688 12.1328 40.7852 12.0508C40.6055 11.9648 40.3926 11.9219 40.1465 11.9219H38.5117V15.1797H39.9414C40.1797 15.1797 40.4004 15.1406 40.6035 15.0625C40.8066 14.9844 40.9824 14.875 41.1309 14.7344C41.2793 14.5938 41.3945 14.4238 41.4766 14.2246C41.5586 14.0254 41.5996 13.8047 41.5996 13.5625Z" fill="#3DBE58"/>
<path d="M52.2871 12.6016C52.2871 12.9531 52.2402 13.2832 52.1465 13.5918C52.0527 13.9004 51.9219 14.1855 51.7539 14.4473C51.5898 14.709 51.3906 14.9453 51.1562 15.1562C50.9219 15.3633 50.6641 15.5391 50.3828 15.6836C50.1055 15.8281 49.8066 15.9395 49.4863 16.0176C49.1699 16.0957 48.8438 16.1348 48.5078 16.1348C48.1719 16.1348 47.8457 16.0957 47.5293 16.0176C47.2129 15.9395 46.9141 15.8281 46.6328 15.6836C46.3555 15.5391 46.0996 15.3633 45.8652 15.1562C45.6309 14.9453 45.4297 14.709 45.2617 14.4473C45.0977 14.1855 44.9688 13.9004 44.875 13.5918C44.7812 13.2793 44.7344 12.9492 44.7344 12.6016C44.7344 12.2539 44.7812 11.9258 44.875 11.6172C44.9688 11.3047 45.0977 11.0176 45.2617 10.7559C45.4297 10.4941 45.6309 10.2598 45.8652 10.0527C46.0996 9.8418 46.3555 9.66406 46.6328 9.51953C46.9141 9.375 47.2129 9.26367 47.5293 9.18555C47.8457 9.10742 48.1719 9.06836 48.5078 9.06836C48.8438 9.06836 49.1699 9.10742 49.4863 9.18555C49.8066 9.26367 50.1055 9.375 50.3828 9.51953C50.6641 9.66406 50.9219 9.8418 51.1562 10.0527C51.3906 10.2598 51.5898 10.4941 51.7539 10.7559C51.9219 11.0176 52.0527 11.3047 52.1465 11.6172C52.2402 11.9258 52.2871 12.2539 52.2871 12.6016ZM50.2715 12.6016C50.2715 12.4141 50.2598 12.2168 50.2363 12.0098C50.2168 11.7988 50.1816 11.5938 50.1309 11.3945C50.0801 11.1914 50.0098 10.998 49.9199 10.8145C49.834 10.627 49.7266 10.4648 49.5977 10.3281C49.4688 10.1875 49.3145 10.0762 49.1348 9.99414C48.9551 9.9082 48.7461 9.86523 48.5078 9.86523C48.2812 9.86523 48.0801 9.9082 47.9043 9.99414C47.7285 10.0801 47.5742 10.1953 47.4414 10.3398C47.3125 10.4805 47.2031 10.6445 47.1133 10.832C47.0273 11.0195 46.957 11.2148 46.9023 11.418C46.8477 11.6172 46.8086 11.8203 46.7852 12.0273C46.7617 12.2305 46.75 12.4219 46.75 12.6016C46.75 12.7812 46.7617 12.9746 46.7852 13.1816C46.8086 13.3848 46.8477 13.5879 46.9023 13.791C46.957 13.9941 47.0273 14.1895 47.1133 14.377C47.2031 14.5605 47.3125 14.7246 47.4414 14.8691C47.5742 15.0098 47.7285 15.123 47.9043 15.209C48.0801 15.2949 48.2812 15.3379 48.5078 15.3379C48.7422 15.3379 48.9492 15.2969 49.1289 15.2148C49.3086 15.1289 49.4629 15.0156 49.5918 14.875C49.7246 14.7344 49.834 14.5723 49.9199 14.3887C50.0059 14.2051 50.0742 14.0117 50.125 13.8086C50.1797 13.6055 50.2168 13.4004 50.2363 13.1934C50.2598 12.9863 50.2715 12.7891 50.2715 12.6016ZM55.9141 16H53.9277V10.0176H52.6973V9.23242H53.9277V6.74219H55.9141V9.23242H57.9648V10.0176H55.9141V16ZM65.4766 16H63.4961V15.1914C63.2617 15.5117 62.9785 15.75 62.6465 15.9062C62.3184 16.0586 61.957 16.1348 61.5625 16.1348C61.0469 16.1348 60.5859 16.043 60.1797 15.8594C59.7734 15.6758 59.4297 15.4258 59.1484 15.1094C58.8672 14.7891 58.6523 14.4141 58.5039 13.9844C58.3555 13.5547 58.2812 13.0938 58.2812 12.6016C58.2812 12.1094 58.3555 11.6484 58.5039 11.2188C58.6523 10.7891 58.8672 10.416 59.1484 10.0996C59.4297 9.7793 59.7734 9.52734 60.1797 9.34375C60.5859 9.16016 61.0469 9.06836 61.5625 9.06836C61.8242 9.06836 62.0723 9.10742 62.3066 9.18555C62.5449 9.26367 62.7617 9.375 62.957 9.51953C63.1562 9.66016 63.3301 9.83203 63.4785 10.0352C63.6309 10.2344 63.75 10.457 63.8359 10.7031L64.7148 9.23242H65.4766V16ZM63.4844 12.6016C63.4844 12.4258 63.4746 12.2402 63.4551 12.0449C63.4395 11.8496 63.4102 11.6562 63.3672 11.4648C63.3242 11.2734 63.2637 11.0918 63.1855 10.9199C63.1113 10.7441 63.0137 10.5898 62.8926 10.457C62.7754 10.3203 62.6328 10.2129 62.4648 10.1348C62.2969 10.0566 62.1016 10.0176 61.8789 10.0176C61.6562 10.0176 61.4629 10.0586 61.2988 10.1406C61.1348 10.2188 60.9941 10.3262 60.877 10.4629C60.7598 10.5957 60.6621 10.75 60.584 10.9258C60.5098 11.1016 60.4512 11.2852 60.4082 11.4766C60.3652 11.668 60.334 11.8613 60.3145 12.0566C60.2988 12.248 60.291 12.4297 60.291 12.6016C60.291 12.7734 60.2988 12.957 60.3145 13.1523C60.334 13.3477 60.3652 13.541 60.4082 13.7324C60.4512 13.9238 60.5098 14.1074 60.584 14.2832C60.6621 14.459 60.7598 14.6152 60.877 14.752C60.9941 14.8848 61.1348 14.9922 61.2988 15.0742C61.4629 15.1523 61.6562 15.1914 61.8789 15.1914C62.082 15.1914 62.2617 15.1504 62.418 15.0684C62.5781 14.9824 62.7168 14.8691 62.834 14.7285C62.9551 14.5879 63.0566 14.4277 63.1387 14.248C63.2207 14.0684 63.2871 13.8828 63.3379 13.6914C63.3887 13.5 63.4258 13.3105 63.4492 13.123C63.4727 12.9316 63.4844 12.7578 63.4844 12.6016ZM74.0547 12.1211C74.0547 12.5781 73.998 13.0547 73.8848 13.5508C73.7754 14.0469 73.6211 14.5332 73.4219 15.0098C73.2227 15.4863 72.9844 15.9336 72.707 16.3516C72.4297 16.7734 72.125 17.1367 71.793 17.4414L71.0488 17.0371C71.1543 16.8418 71.2539 16.623 71.3477 16.3809C71.4414 16.1387 71.5254 15.8828 71.5996 15.6133C71.6777 15.3398 71.7461 15.0586 71.8047 14.7695C71.8672 14.4805 71.918 14.1953 71.957 13.9141C72 13.6289 72.0312 13.3535 72.0508 13.0879C72.0742 12.8184 72.0859 12.5684 72.0859 12.3379C72.0859 12.1855 72.0801 12.0234 72.0684 11.8516C72.0566 11.6758 72.0312 11.502 71.9922 11.3301C71.957 11.1543 71.9082 10.9863 71.8457 10.8262C71.7832 10.666 71.6992 10.5254 71.5938 10.4043C71.4922 10.2832 71.3672 10.1855 71.2188 10.1113C71.0742 10.0371 70.9023 10 70.7031 10C70.5078 10 70.334 10.0449 70.1816 10.1348C70.0293 10.2207 69.8945 10.3359 69.7773 10.4805C69.6602 10.6211 69.5586 10.7832 69.4727 10.9668C69.3906 11.1504 69.3223 11.3398 69.2676 11.5352C69.2168 11.7266 69.1797 11.916 69.1562 12.1035C69.1328 12.291 69.1211 12.459 69.1211 12.6074V16H67.1348V9.23242H67.8965L68.8047 10.8086C68.9141 10.5469 69.0508 10.3086 69.2148 10.0938C69.3789 9.87891 69.5645 9.69531 69.7715 9.54297C69.9785 9.39062 70.207 9.27344 70.457 9.19141C70.7109 9.10938 70.9844 9.06836 71.2773 9.06836C71.7461 9.06836 72.1543 9.14453 72.502 9.29688C72.8496 9.44922 73.1387 9.66211 73.3691 9.93555C73.5996 10.2051 73.7715 10.5273 73.8848 10.9023C73.998 11.2734 74.0547 11.6797 74.0547 12.1211ZM77.4414 7.59766C77.4414 7.74609 77.4121 7.88672 77.3535 8.01953C77.2988 8.15234 77.2227 8.26758 77.125 8.36523C77.0273 8.46289 76.9121 8.54102 76.7793 8.59961C76.6465 8.6543 76.5059 8.68164 76.3574 8.68164C76.209 8.68164 76.0684 8.6543 75.9355 8.59961C75.8066 8.54102 75.6934 8.46289 75.5957 8.36523C75.498 8.26758 75.4199 8.15234 75.3613 8.01953C75.3066 7.88672 75.2793 7.74609 75.2793 7.59766C75.2793 7.44922 75.3066 7.31055 75.3613 7.18164C75.4199 7.04883 75.498 6.93359 75.5957 6.83594C75.6934 6.73828 75.8066 6.66211 75.9355 6.60742C76.0684 6.54883 76.209 6.51953 76.3574 6.51953C76.5059 6.51953 76.6465 6.54883 76.7793 6.60742C76.9121 6.66211 77.0273 6.73828 77.125 6.83594C77.2227 6.93359 77.2988 7.04883 77.3535 7.18164C77.4121 7.31055 77.4414 7.44922 77.4414 7.59766ZM77.3535 16H75.3672V9.23828H77.3535V16ZM85.2637 10.9082L84.4082 11.248C84.2715 10.8184 84.043 10.4883 83.7227 10.2578C83.4023 10.0273 83.0176 9.91211 82.5684 9.91211C82.3262 9.91211 82.1094 9.95117 81.918 10.0293C81.7305 10.1035 81.5645 10.207 81.4199 10.3398C81.2793 10.4727 81.1582 10.627 81.0566 10.8027C80.959 10.9785 80.8789 11.166 80.8164 11.3652C80.7539 11.5645 80.709 11.7715 80.6816 11.9863C80.6543 12.1973 80.6406 12.4023 80.6406 12.6016C80.6406 12.8164 80.6523 13.0332 80.6758 13.252C80.6992 13.4707 80.7383 13.6816 80.793 13.8848C80.8516 14.084 80.9277 14.2715 81.0215 14.4473C81.1152 14.6191 81.2324 14.7695 81.373 14.8984C81.5176 15.0273 81.6875 15.1289 81.8828 15.2031C82.082 15.2773 82.3105 15.3145 82.5684 15.3145C82.7754 15.3145 82.9727 15.2832 83.1602 15.2207C83.3477 15.1582 83.5195 15.0703 83.6758 14.957C83.832 14.8438 83.9707 14.709 84.0918 14.5527C84.2129 14.3965 84.3086 14.2227 84.3789 14.0312L85.2402 14.3477C85.1113 14.6562 84.9395 14.9238 84.7246 15.1504C84.5137 15.373 84.2734 15.5586 84.0039 15.707C83.7344 15.8516 83.4453 15.959 83.1367 16.0293C82.8281 16.0996 82.5156 16.1348 82.1992 16.1348C81.6875 16.1348 81.2129 16.0488 80.7754 15.877C80.3379 15.7012 79.959 15.457 79.6387 15.1445C79.3223 14.8281 79.0742 14.4551 78.8945 14.0254C78.7148 13.5918 78.625 13.1172 78.625 12.6016C78.625 12.082 78.7129 11.6055 78.8887 11.1719C79.0684 10.7383 79.3164 10.3652 79.6328 10.0527C79.9492 9.74023 80.3262 9.49805 80.7637 9.32617C81.2012 9.1543 81.6797 9.06836 82.1992 9.06836C82.5273 9.06836 82.8477 9.10547 83.1602 9.17969C83.4727 9.25 83.7617 9.36133 84.0273 9.51367C84.2969 9.66211 84.5371 9.85156 84.748 10.082C84.9629 10.3125 85.1348 10.5879 85.2637 10.9082Z" fill="white"/>
<path d="M102.527 12.7891C102.77 12.8438 103.012 12.8867 103.254 12.918C103.496 12.9492 103.74 12.9648 103.986 12.9648C104.244 12.9648 104.482 12.9414 104.701 12.8945C104.924 12.8438 105.115 12.7617 105.275 12.6484C105.439 12.5312 105.568 12.377 105.662 12.1855C105.756 11.9941 105.803 11.7559 105.803 11.4707C105.803 11.2402 105.771 11.0293 105.709 10.8379C105.646 10.6465 105.553 10.4824 105.428 10.3457C105.307 10.209 105.156 10.1035 104.977 10.0293C104.797 9.95117 104.588 9.91211 104.35 9.91211C104.127 9.91211 103.926 9.95312 103.746 10.0352C103.57 10.1172 103.414 10.2285 103.277 10.3691C103.145 10.5059 103.029 10.666 102.932 10.8496C102.838 11.0332 102.76 11.2246 102.697 11.4238C102.635 11.623 102.59 11.8242 102.562 12.0273C102.535 12.2305 102.521 12.4219 102.521 12.6016C102.521 12.6328 102.521 12.6641 102.521 12.6953C102.521 12.7266 102.523 12.7578 102.527 12.7891ZM107.408 11.4531C107.408 11.7305 107.363 11.9785 107.273 12.1973C107.184 12.4121 107.061 12.6016 106.904 12.7656C106.752 12.9297 106.574 13.0684 106.371 13.1816C106.168 13.2949 105.951 13.3887 105.721 13.4629C105.49 13.5332 105.252 13.584 105.006 13.6152C104.764 13.6465 104.527 13.6621 104.297 13.6621C104.004 13.6621 103.715 13.6426 103.43 13.6035C103.145 13.5605 102.863 13.4941 102.586 13.4043C102.629 13.6621 102.697 13.9082 102.791 14.1426C102.885 14.373 103.01 14.5762 103.166 14.752C103.322 14.9238 103.514 15.0605 103.74 15.1621C103.971 15.2637 104.242 15.3145 104.555 15.3145C104.762 15.3145 104.959 15.2832 105.146 15.2207C105.334 15.1582 105.506 15.0703 105.662 14.957C105.818 14.8438 105.955 14.709 106.072 14.5527C106.193 14.3965 106.291 14.2227 106.365 14.0312L107.221 14.3477C107.092 14.6562 106.914 14.9238 106.688 15.1504C106.465 15.373 106.211 15.5586 105.926 15.707C105.645 15.8516 105.344 15.959 105.023 16.0293C104.707 16.0996 104.393 16.1348 104.08 16.1348C103.564 16.1348 103.088 16.0488 102.65 15.877C102.213 15.7012 101.836 15.457 101.52 15.1445C101.203 14.832 100.955 14.459 100.775 14.0254C100.596 13.5918 100.506 13.1172 100.506 12.6016C100.506 12.0859 100.596 11.6113 100.775 11.1777C100.955 10.7441 101.203 10.3711 101.52 10.0586C101.836 9.74609 102.213 9.50391 102.65 9.33203C103.088 9.15625 103.564 9.06836 104.08 9.06836C104.33 9.06836 104.586 9.08594 104.848 9.12109C105.109 9.15625 105.363 9.21289 105.609 9.29102C105.855 9.36523 106.088 9.46289 106.307 9.58398C106.525 9.70508 106.715 9.85547 106.875 10.0352C107.039 10.2109 107.168 10.416 107.262 10.6504C107.359 10.8848 107.408 11.1523 107.408 11.4531ZM115.459 16H113.479V15.1914C113.244 15.5117 112.961 15.75 112.629 15.9062C112.301 16.0586 111.939 16.1348 111.545 16.1348C111.029 16.1348 110.568 16.043 110.162 15.8594C109.756 15.6758 109.412 15.4258 109.131 15.1094C108.85 14.7891 108.635 14.4141 108.486 13.9844C108.338 13.5547 108.264 13.0938 108.264 12.6016C108.264 12.1094 108.338 11.6484 108.486 11.2188C108.635 10.7891 108.85 10.416 109.131 10.0996C109.412 9.7793 109.756 9.52734 110.162 9.34375C110.568 9.16016 111.029 9.06836 111.545 9.06836C111.807 9.06836 112.055 9.10742 112.289 9.18555C112.527 9.26367 112.744 9.375 112.939 9.51953C113.139 9.66016 113.312 9.83203 113.461 10.0352C113.613 10.2344 113.732 10.457 113.818 10.7031L114.697 9.23242H115.459V16ZM113.467 12.6016C113.467 12.4258 113.457 12.2402 113.438 12.0449C113.422 11.8496 113.393 11.6562 113.35 11.4648C113.307 11.2734 113.246 11.0918 113.168 10.9199C113.094 10.7441 112.996 10.5898 112.875 10.457C112.758 10.3203 112.615 10.2129 112.447 10.1348C112.279 10.0566 112.084 10.0176 111.861 10.0176C111.639 10.0176 111.445 10.0586 111.281 10.1406C111.117 10.2188 110.977 10.3262 110.859 10.4629C110.742 10.5957 110.645 10.75 110.566 10.9258C110.492 11.1016 110.434 11.2852 110.391 11.4766C110.348 11.668 110.316 11.8613 110.297 12.0566C110.281 12.248 110.273 12.4297 110.273 12.6016C110.273 12.7734 110.281 12.957 110.297 13.1523C110.316 13.3477 110.348 13.541 110.391 13.7324C110.434 13.9238 110.492 14.1074 110.566 14.2832C110.645 14.459 110.742 14.6152 110.859 14.752C110.977 14.8848 111.117 14.9922 111.281 15.0742C111.445 15.1523 111.639 15.1914 111.861 15.1914C112.064 15.1914 112.244 15.1504 112.4 15.0684C112.561 14.9824 112.699 14.8691 112.816 14.7285C112.938 14.5879 113.039 14.4277 113.121 14.248C113.203 14.0684 113.27 13.8828 113.32 13.6914C113.371 13.5 113.408 13.3105 113.432 13.123C113.455 12.9316 113.467 12.7578 113.467 12.6016ZM116.771 13.1055C116.771 12.7969 116.797 12.4766 116.848 12.1445C116.902 11.8125 116.979 11.4805 117.076 11.1484C117.178 10.8164 117.299 10.4883 117.439 10.1641C117.58 9.83984 117.738 9.5293 117.914 9.23242H119.361C119.264 9.52539 119.176 9.83203 119.098 10.1523C119.023 10.4688 118.959 10.7871 118.904 11.1074C118.854 11.4238 118.812 11.7344 118.781 12.0391C118.754 12.3438 118.74 12.627 118.74 12.8887C118.74 13.041 118.746 13.2051 118.758 13.3809C118.773 13.5527 118.799 13.7266 118.834 13.9023C118.869 14.0742 118.918 14.2402 118.98 14.4004C119.047 14.5605 119.131 14.7031 119.232 14.8281C119.334 14.9492 119.457 15.0469 119.602 15.1211C119.75 15.1914 119.924 15.2266 120.123 15.2266C120.318 15.2266 120.492 15.1836 120.645 15.0977C120.801 15.0078 120.938 14.8926 121.055 14.752C121.172 14.6074 121.271 14.4434 121.354 14.2598C121.436 14.0762 121.502 13.8887 121.553 13.6973C121.607 13.502 121.646 13.3125 121.67 13.1289C121.697 12.9414 121.711 12.7734 121.711 12.625V9.23242H123.691V16H122.93L122.021 14.4238C121.908 14.6855 121.77 14.9238 121.605 15.1387C121.445 15.3496 121.262 15.5312 121.055 15.6836C120.848 15.8359 120.617 15.9531 120.363 16.0352C120.113 16.1172 119.842 16.1582 119.549 16.1582C119.08 16.1582 118.672 16.082 118.324 15.9297C117.977 15.7773 117.688 15.5664 117.457 15.2969C117.227 15.0273 117.055 14.707 116.941 14.3359C116.828 13.9609 116.771 13.5508 116.771 13.1055ZM127.893 16H125.906V10.0176H124.676V9.23242H125.906V6.74219H127.893V9.23242H129.943V10.0176H127.893V16ZM136.922 9.23242L134.461 15.1855C134.18 15.8652 133.865 16.5371 133.518 17.2012C133.174 17.8691 132.801 18.5098 132.398 19.123L131.625 18.6543C131.723 18.4785 131.838 18.2754 131.971 18.0449C132.104 17.8145 132.234 17.5762 132.363 17.3301C132.492 17.084 132.611 16.8398 132.721 16.5977C132.83 16.3594 132.914 16.1406 132.973 15.9414L130.014 9.23242H131.994L134.004 13.8086L135.551 9.23242H136.922Z" fill="white"/>
<path d="M95.5489 18.8685C95.3909 19.0725 95.1794 19.2081 94.9978 19.3685C94.6672 19.6604 94.6829 19.9315 95.0564 20.1831C95.2541 20.3161 95.4682 20.431 95.6752 20.5537C95.7289 20.5855 95.7882 20.6115 95.8368 20.6481C95.9351 20.722 95.999 20.8167 95.9222 20.9229C95.8387 21.0385 95.7142 21.0035 95.6014 20.9511C95.0689 20.7042 94.6271 20.369 94.2594 19.9545C93.8179 19.4567 93.4615 18.9294 93.3833 18.291C93.3684 18.1688 93.2954 18.1046 93.1418 18.1172C92.741 18.1501 92.3412 18.1344 91.9674 18.3335C91.461 18.6032 90.8101 18.5315 90.3728 18.2274C90.108 18.0432 90.0185 17.7864 90.0034 17.5252C89.9726 16.9933 90.149 16.5244 90.7178 16.2298C90.869 16.1516 91.0225 16.0635 91.189 16.0228C91.8834 15.8531 92.2113 15.392 92.4705 14.8691C92.6461 14.5148 92.7563 14.145 92.8031 13.7597C93.1944 13.8542 93.3323 14.1102 93.184 14.3885C92.888 14.9439 92.5997 15.5153 92.5752 16.1273C92.5558 16.6116 92.6055 17.1121 92.9382 17.5522C93.0475 17.6968 93.1893 17.7225 93.3732 17.7793C93.4821 17.3923 93.5306 17.002 93.6855 16.6364C93.8079 16.3472 93.8813 16.0502 93.8817 15.7438C93.8828 14.91 93.7077 14.1304 92.9191 13.553C92.8354 13.4917 92.7978 13.419 92.7898 13.3242C92.7111 12.395 92.7539 11.4689 92.8279 10.54C92.8974 9.66829 92.8895 8.79194 92.8368 7.91867C92.8102 7.47908 92.5361 7.27759 92.0035 7.23798C91.9108 7.2311 91.8169 7.23588 91.7246 7.22719C91.6225 7.21759 91.5016 7.20641 91.5015 7.0897C91.5014 6.96446 91.6272 6.96834 91.7284 6.96765C92.045 6.96549 92.3616 6.96719 92.6781 6.96874C93.0899 6.97075 93.0988 6.97199 93.1344 6.62554C93.1779 6.20308 93.2044 5.77932 93.2382 5.35611C93.2439 5.28423 93.2424 5.21139 93.2559 5.14065C93.2702 5.06587 93.3096 5.00373 93.4153 5.00016C93.5247 4.99646 93.5634 5.05898 93.5767 5.13445C93.6017 5.27704 93.6277 5.42026 93.6369 5.564C93.7026 6.58788 93.7611 7.61211 93.8278 8.63594C93.8789 9.41983 93.9328 10.2037 93.9971 10.9868C94.026 11.3391 94.0449 11.3452 94.4484 11.347C94.9137 11.349 95.378 11.348 95.8432 11.314C96.1239 11.2935 96.3404 11.2019 96.5259 11.0311C96.8492 10.7335 97.0371 10.3771 97.0814 9.97714C97.1423 9.42846 97.0773 8.89254 96.8041 8.38038C96.3518 7.53255 95.4852 7.32902 94.5572 7.4395C94.5205 7.44387 94.485 7.45531 94.4486 7.46164C94.0654 7.52818 94.0489 7.51395 94.0364 7.17164C94.0317 7.04299 94.0823 6.97212 94.2396 6.97206C94.9829 6.97182 95.736 6.89979 96.462 7.07463C97.461 7.31519 98.2224 7.83944 98.3778 8.83803C98.4715 9.43978 98.2331 9.9923 97.8466 10.4937C97.6455 10.7547 97.4175 10.9976 97.1568 11.2174C97.0994 11.2658 97.0207 11.3042 97.0105 11.4005C98.7181 12.0401 99.8475 13.0299 99.5535 14.7763C99.4187 15.5769 98.8742 16.1915 98.0962 16.6376C97.3296 17.0773 96.4621 17.2244 95.5026 17.2091C95.8875 17.775 95.9375 18.3138 95.5489 18.8685ZM94.2169 14.4518C94.2623 14.5479 94.2952 14.6504 94.3557 14.7388C94.4785 14.9182 94.5253 15.0895 94.3731 15.2755C94.3321 15.3255 94.3185 15.3943 94.3015 15.4564C94.1459 16.0242 94.56 16.5515 95.2208 16.6474C95.544 16.6943 95.867 16.7092 96.1926 16.6995C97.1816 16.6701 97.9932 16.1139 98.1371 15.3182C98.2861 14.4942 98.1291 13.7012 97.596 12.995C97.123 12.3683 96.4843 11.921 95.5848 11.8265C95.1402 11.7798 94.6931 11.8086 94.2472 11.8104C94.0635 11.8111 94.0505 11.9358 94.0477 12.0496C94.0401 12.3619 94.0441 12.6744 94.0367 12.9867C94.0253 13.4687 94.0505 13.9469 94.2169 14.4518ZM91.873 17.9528C92.0523 17.8403 92.1624 17.684 92.2441 17.5112C92.4139 17.1518 92.2882 16.6761 91.9748 16.4831C91.6552 16.2863 91.1256 16.3132 90.8108 16.5662C90.4854 16.8277 90.3621 17.1607 90.4064 17.5452C90.4438 17.8701 90.701 18.1085 91.0767 18.1447C91.357 18.1716 91.6114 18.1161 91.873 17.9528ZM94.666 18.9162C94.8876 18.9196 95.0574 18.8329 95.197 18.6917C95.5913 18.2929 95.5469 17.6517 95.0997 17.297C94.6151 16.9127 93.9357 17.0774 93.7617 17.6199C93.6803 17.874 93.6833 18.1252 93.7798 18.3753C93.9275 18.7581 94.1446 18.8985 94.666 18.9162ZM93.1064 11.8167C93.2038 12.0383 93.3547 12.1207 93.5255 12.0413C93.6412 11.9874 93.7053 11.9025 93.6854 11.7856C93.666 11.6715 93.5862 11.593 93.4554 11.5742C93.2692 11.5474 93.1596 11.6327 93.1064 11.8167Z" fill="#3DBE58"/>
<path d="M25.4287 34.4082C25.4239 34.4353 25.4191 34.4623 25.3925 34.5269C25.3327 35.3696 25.2901 36.1745 25.2635 36.9799C25.2607 37.0621 25.3533 37.1473 25.4016 37.2312C25.4016 37.2312 25.4181 37.2349 25.4114 37.2524C25.4068 37.324 25.409 37.3782 25.3948 37.4571C25.5781 38.3574 25.7778 39.233 25.9798 40.1185C25.9415 40.1031 25.8443 40.0861 25.7746 40.0329C24.5493 39.097 23.8823 37.8283 23.7276 36.323C23.636 35.4316 23.6374 34.5158 23.7277 33.6243C23.8359 32.5564 24.0848 31.5028 24.2691 30.4424C24.2956 30.29 24.3015 30.1341 24.3179 29.9707C23.7974 30.0157 22.9833 30.674 22.8092 31.1619C22.7551 31.2445 22.7132 31.3077 22.6452 31.3722C22.487 31.7496 22.3549 32.1258 22.2171 32.5253C22.208 32.5805 22.2045 32.6123 22.1746 32.6511C22.1135 32.9091 22.0788 33.1601 22.0386 33.4447C22.0351 33.7551 22.0371 34.0318 22.0259 34.3398C22.0709 34.635 22.129 34.8988 22.1877 35.1933C22.1963 35.3263 22.2044 35.4285 22.1947 35.5422C22.1895 35.6223 22.2021 35.6908 22.2097 35.7871C22.216 35.8692 22.2272 35.9236 22.2287 36.0044C22.2745 36.1759 22.3299 36.321 22.3865 36.4915C22.3975 36.5667 22.4072 36.6164 22.4059 36.6893C22.3994 36.7458 22.4038 36.7792 22.3947 36.8347C22.4419 37.0215 22.5027 37.1862 22.5648 37.3814C22.5809 37.5119 22.5956 37.612 22.5963 37.7369C22.5904 37.7982 22.5987 37.8347 22.5969 37.8986C22.6449 38.0944 22.7029 38.2629 22.7613 38.4595C22.7734 38.5619 22.7851 38.6361 22.7769 38.7281C22.8158 38.9369 22.8745 39.1279 22.9326 39.347C22.9332 39.4313 22.9346 39.4875 22.9082 39.5444C22.8444 39.5528 22.8082 39.5604 22.7735 39.5618C22.775 39.5555 22.7627 39.5512 22.767 39.5261C22.7227 39.4508 22.6742 39.4006 22.6174 39.3286C22.5502 39.25 22.4912 39.1933 22.4321 39.1365C22.4175 39.1033 22.4029 39.0702 22.3778 38.9883C22.3083 38.8367 22.2493 38.7339 22.189 38.6037C22.0376 38.3618 21.8875 38.1473 21.7255 37.9121C21.6798 37.8374 21.646 37.7834 21.6193 37.7055C21.5445 37.5611 21.4625 37.4407 21.3737 37.2965C21.3008 37.2088 21.2346 37.1448 21.1685 37.0808C21.1523 37.0574 21.136 37.0339 21.1185 36.9682C21.0488 36.8328 20.9803 36.7396 20.9057 36.6226C20.8107 36.4631 20.7218 36.3275 20.6267 36.1658C20.5394 36.0364 20.4582 35.9331 20.3738 35.8077C20.3475 35.7481 20.3246 35.7107 20.2974 35.648C20.1481 35.4323 20.003 35.242 19.8448 35.0314C19.7536 34.9045 19.6756 34.7979 19.6003 34.666C19.4853 34.5057 19.3675 34.3708 19.2454 34.2165C19.2115 34.1776 19.1819 34.1581 19.1523 34.1386C19.1323 34.1122 19.1123 34.0857 19.086 34.0178C19.0128 33.906 18.9457 33.8356 18.8689 33.7529C18.8425 33.7227 18.8232 33.719 18.8012 33.7295C18.8012 33.7295 18.7897 33.7088 18.7807 33.6828C18.7327 33.6301 18.6937 33.6035 18.6547 33.5768C18.6547 33.5768 18.6393 33.5549 18.6291 33.5293C18.5854 33.4658 18.5519 33.4279 18.5156 33.3644C18.4574 33.286 18.4019 33.2331 18.3322 33.1583C18.1046 32.892 17.8911 32.6475 17.6723 32.3804C17.6203 32.3185 17.5738 32.2793 17.5179 32.2228C17.4716 32.1685 17.4347 32.1315 17.3935 32.0682C17.3077 31.9608 17.2262 31.8797 17.138 31.7769C17.0746 31.7112 17.0179 31.667 16.9611 31.5964C16.909 31.5008 16.8571 31.4316 16.8142 31.3383C16.7572 31.2434 16.6913 31.1726 16.6191 31.08C16.5681 31 16.5232 30.9417 16.4747 30.8583C16.4215 30.7709 16.3719 30.7087 16.3126 30.634C16.2861 30.6053 16.2665 30.6 16.2439 30.6059C16.2439 30.6059 16.2318 30.5727 16.2238 30.5364C16.1834 30.4485 16.1511 30.3969 16.1138 30.3189C16.0545 30.2091 16.0002 30.1258 15.934 30.0212C15.8901 29.9436 15.8579 29.8873 15.8337 29.8072C15.7837 29.7069 15.7256 29.6305 15.668 29.5303C15.6524 29.4626 15.6364 29.4186 15.6256 29.3529C15.5945 29.2907 15.5582 29.2501 15.5177 29.1884C15.4903 29.0853 15.4672 29.0032 15.4527 28.8991C15.4236 28.8344 15.3859 28.7917 15.3385 28.7407C15.3288 28.7325 15.3083 28.7477 15.3083 28.7477C15.2996 28.6946 15.2909 28.6415 15.2857 28.5344C15.2858 28.3989 15.2823 28.3175 15.2932 28.2126C15.2979 28.0266 15.2883 27.8641 15.2848 27.6713C15.283 27.56 15.2751 27.4791 15.2672 27.3982C15.2774 27.3003 15.2877 27.2024 15.3243 27.0647C15.387 26.8717 15.4235 26.7184 15.4714 26.539C15.4842 26.4562 15.4855 26.3995 15.4993 26.3207C15.5431 26.2093 15.5745 26.12 15.6232 26.0079C15.7257 25.8074 15.8108 25.6299 15.9209 25.4449C16.1418 25.2529 16.3378 25.0684 16.5484 24.881C16.563 24.8779 16.5877 24.8614 16.6129 24.869C16.6897 24.8677 16.7414 24.8588 16.8205 24.8637C17.1096 24.8697 17.3713 24.8618 17.6554 24.8659C17.7113 24.8769 17.7448 24.876 17.8043 24.8879C18.0654 24.9587 18.3004 25.0166 18.5354 25.0745C18.5354 25.0745 18.5648 25.0853 18.5836 25.1096C18.6825 25.1682 18.7627 25.2024 18.8646 25.2463C18.9169 25.2523 18.9475 25.2485 18.978 25.2448C18.978 25.2448 19.0033 25.2612 19.0257 25.2894C19.1355 25.3517 19.223 25.3857 19.3302 25.4297C19.3783 25.4469 19.4067 25.4542 19.4413 25.4871C19.8005 25.6757 20.1535 25.8387 20.5301 26.0151C20.5895 26.0316 20.6252 26.0348 20.6727 26.0613C20.8496 26.1261 21.0149 26.1675 21.2031 26.215C21.2576 26.224 21.2891 26.2269 21.3264 26.2543C21.4847 26.3156 21.6372 26.3522 21.819 26.3939C21.927 26.3936 22.0057 26.3882 22.104 26.3965C22.3082 26.2961 22.4928 26.1821 22.7001 26.0556C22.7503 25.9653 22.7779 25.8874 22.8058 25.8063C22.8061 25.8031 22.8107 25.7985 22.8249 25.8012C22.839 25.8039 22.8605 25.7846 22.884 25.7774C22.9435 25.6443 22.9796 25.5185 23.0187 25.3664C23.0128 25.3067 23.0039 25.2732 23.0028 25.2184C23.0181 25.1675 23.0255 25.1381 23.0577 25.1015C23.1184 24.9874 23.1541 24.8804 23.199 24.7488C23.218 24.6727 23.2278 24.6212 23.2623 24.562C23.3458 24.4319 23.4047 24.3095 23.4824 24.1698C23.6391 24.0898 23.777 24.0272 23.9329 23.98C24.0402 23.9869 24.1295 23.9784 24.2511 23.9755C24.6078 24.0445 24.7478 23.9162 24.7276 23.5824C24.7134 23.3476 24.7324 23.1109 24.7619 22.8783C24.8519 22.818 24.9167 22.7545 24.999 22.685C25.0166 22.679 25.05 22.6629 25.0739 22.6759C25.134 22.6876 25.1702 22.6864 25.2246 22.6999C25.5515 22.7042 25.796 22.5441 25.8532 22.262C25.9137 21.9633 25.8724 21.6416 25.8535 21.3312C25.8498 21.2698 25.746 21.2144 25.6816 21.1557C25.6748 21.1552 25.6699 21.1679 25.6783 21.1481C25.6793 21.116 25.672 21.1036 25.6705 21.0756C25.6764 21.0598 25.6845 21.0272 25.7081 21.0222C25.7504 20.9613 25.7691 20.9054 25.8002 20.8401C25.8127 20.8309 25.8337 20.808 25.8599 20.8057C25.9648 20.7395 26.0433 20.6757 26.1487 20.6121C26.228 20.6038 26.2805 20.5953 26.3567 20.5991C26.476 20.5527 26.5716 20.4941 26.6958 20.4304C26.8014 20.418 26.8784 20.4107 26.9725 20.4256C27.2388 20.376 27.488 20.3041 27.7627 20.2276C27.8996 20.1217 28.011 20.0203 28.1458 19.9066C28.3669 19.6725 28.4014 19.462 28.1213 19.247C28.1064 19.1688 28.0965 19.1166 28.1079 19.0524C28.0726 18.944 28.0161 18.8477 27.9523 18.7278C27.9316 18.6746 27.9182 18.645 27.9162 18.5935C27.923 18.5391 27.9183 18.5067 27.9241 18.4497C27.8793 18.3275 27.8239 18.23 27.7624 18.1045C27.7483 18.0003 27.7403 17.9242 27.7522 17.8286C27.6972 17.4647 27.6222 17.1202 27.5467 16.7469C27.5425 16.6413 27.5387 16.5645 27.5524 16.462C27.5586 16.0741 27.5474 15.712 27.5376 15.3237C27.5429 15.2451 27.5466 15.1927 27.5731 15.1259C27.7622 14.2859 28.174 13.5586 28.5058 12.7971C28.8677 11.9663 29.1872 11.1156 29.4932 10.2622C29.7917 9.42976 29.7494 8.55417 29.7107 7.6904C29.6961 7.36697 29.5629 7.04887 29.4833 6.70435C29.4818 6.64844 29.4808 6.61651 29.495 6.56331C29.5204 6.44702 29.5305 6.35199 29.5406 6.25697C29.7473 6.75382 29.8591 7.26675 29.9953 7.77314C30.041 7.94321 30.1486 8.09665 30.2314 8.28137C30.2359 8.33678 30.2368 8.36852 30.2211 8.42538C30.2681 9.02547 30.3204 9.60204 30.4007 10.1747C30.4356 10.4234 30.528 10.664 30.5958 10.9356C30.5987 11.0171 30.6001 11.0715 30.5846 11.1522C30.6285 12.2008 30.6795 13.2237 30.7569 14.2446C30.776 14.4958 30.8811 14.7405 30.9466 14.9882C30.9516 15.0227 30.9566 15.0571 30.9627 15.1369C30.9632 15.235 30.9626 15.2877 30.9464 15.3737C31.0049 16.0622 31.0735 16.7182 31.1587 17.3721C31.1718 17.4727 31.2616 17.5633 31.3159 17.6585C31.3159 17.6585 31.3293 17.6907 31.332 17.7263C31.3332 17.7961 31.3319 17.8302 31.3136 17.8865C31.4769 18.5542 31.6162 19.2148 31.8477 19.8413C32.1273 20.5979 32.5475 21.3098 33.1781 21.8107C33.7465 22.2621 34.4227 22.5795 35.058 22.9443C35.3572 23.1161 35.6721 23.2607 35.9799 23.4176C35.9689 23.457 35.9579 23.4965 35.9469 23.536C35.7051 23.5632 35.461 23.6259 35.222 23.6104C34.7161 23.5775 34.1927 23.5713 33.7139 23.4285C33.1951 23.2738 32.7144 22.9851 32.2256 22.7378C31.9224 22.5844 31.7815 22.6322 31.7958 22.9521C31.8084 23.2348 31.8062 23.5557 31.937 23.7888C32.4248 24.6577 32.962 25.499 33.4892 26.3455C33.536 26.4207 33.6441 26.4578 33.7349 26.5353C33.8082 26.6116 33.8703 26.6653 33.9324 26.719C33.947 26.7805 33.9616 26.842 33.9614 26.9342C33.9874 27.0059 34.0281 27.0471 34.0782 27.1038C34.0968 27.1417 34.1056 27.1642 34.1077 27.2105C34.1417 27.2761 34.1821 27.3181 34.2224 27.3602C34.2428 27.3858 34.2632 27.4115 34.2921 27.4667C34.2981 27.5097 34.2956 27.5231 34.2832 27.5622C34.3285 27.6616 34.3837 27.7356 34.4513 27.8337C34.475 27.911 34.4864 27.964 34.4776 28.0267C34.4943 28.0804 34.5311 28.1246 34.5846 28.1738C34.6013 28.1788 34.6356 28.1724 34.637 28.2021C34.6455 28.3107 34.6524 28.3895 34.6373 28.4812C34.6799 28.6097 34.7446 28.7254 34.8092 28.8411C34.8159 28.8528 34.8226 28.8645 34.8256 28.9227C34.8299 29.0961 34.8381 29.2231 34.8296 29.3803C34.8741 29.6305 34.9352 29.8503 34.9964 30.0702C35.0007 30.2719 35.005 30.4737 34.9761 30.7144C34.9141 31.0029 34.8853 31.2526 34.8533 31.5327C34.8212 31.7421 34.7923 31.9211 34.7388 32.1049C34.6856 32.2348 34.657 32.3597 34.6274 32.5126C34.6348 32.5759 34.6433 32.6114 34.6517 32.6468C34.6406 32.6772 34.6296 32.7075 34.5996 32.757C34.5685 32.7798 34.5563 32.7835 34.5221 32.7876C34.4926 32.8381 34.4852 32.8882 34.4736 32.965C34.4743 33.0264 34.4793 33.0612 34.4729 33.1175C34.4572 33.1709 34.4527 33.2028 34.4335 33.2309C34.4188 33.227 34.3924 33.2419 34.3658 33.2458C34.2658 33.4322 34.1925 33.6149 34.1086 33.8238C34.047 33.9286 33.9959 34.0072 33.8852 34.1775C33.8611 33.9278 33.8492 33.8058 33.8374 33.6838C33.8553 33.5972 33.8731 33.5106 33.9309 33.3988C34.0287 33.2694 34.1367 33.1651 34.1364 33.0611C34.1341 32.2946 34.1135 31.5281 34.0862 30.762C34.0842 30.7065 33.9837 30.6545 33.929 30.6008C33.9198 30.5684 33.9107 30.536 33.9069 30.4518C33.9013 30.339 33.8902 30.2778 33.8909 30.1943C33.8444 30.0826 33.7862 29.9934 33.728 29.9042C33.7166 29.8394 33.7052 29.7747 33.6906 29.6637C33.643 29.5585 33.5984 29.4994 33.5539 29.4403C33.5514 29.4261 33.5489 29.4119 33.544 29.357C33.533 29.2874 33.5246 29.2584 33.5257 29.213C33.5001 29.1518 33.4649 29.107 33.4211 29.0501C33.3973 29.0225 33.3791 29.0168 33.3579 29.0207C33.3548 29.0075 33.3518 28.9944 33.3408 28.9391C33.2693 28.7768 33.2057 28.6566 33.1409 28.5109C33.0861 28.4263 33.0325 28.3671 32.9754 28.285C32.9091 28.2093 32.8463 28.1565 32.7834 28.1037C32.7466 28.0424 32.7099 27.9811 32.6631 27.8776C32.6114 27.7888 32.5697 27.7421 32.5167 27.6828C32.487 27.6532 32.4657 27.6478 32.43 27.6318C32.3416 27.5217 32.2649 27.4337 32.1968 27.3214C32.1557 27.2665 32.1059 27.2358 32.0433 27.1856C31.9741 27.1153 31.9177 27.0646 31.862 26.9875C31.7379 26.8488 31.6132 26.7364 31.4769 26.6015C31.1898 26.2973 30.9142 26.0156 30.6376 25.708C30.4547 25.5111 30.2729 25.3401 30.091 25.1691C30.0464 25.2013 30.0018 25.2336 29.9572 25.2658C30.019 25.3934 30.0807 25.521 30.1411 25.6759C30.1494 25.7567 30.159 25.8103 30.1551 25.893C30.2124 26.3255 30.2754 26.7304 30.3587 27.1311C30.3853 27.2594 30.4654 27.3766 30.521 27.4989C30.5231 27.5271 30.5252 27.5554 30.5142 27.6259C30.4999 27.7806 30.4979 27.8932 30.4976 28.0058C30.4953 28.8804 30.4906 29.755 30.4927 30.6296C30.4936 30.964 30.5105 31.2983 30.5201 31.6327C30.5095 31.8892 30.4988 32.1458 30.4662 32.4549C30.4591 32.8451 30.4739 33.1827 30.4887 33.5202C30.4927 33.6079 30.4967 33.6957 30.5036 33.8316C30.5075 33.9369 30.5085 33.9941 30.4934 34.0739C30.4904 34.2204 30.4912 34.347 30.5182 34.4677C30.7159 35.3527 31.1421 36.1325 31.6544 36.8675C31.923 37.253 32.2203 37.6185 32.5047 37.993C32.4875 38.021 32.4704 38.0491 32.4532 38.0771C32.3401 38.0537 32.2231 38.0418 32.1147 38.0047C31.8435 37.9117 31.5629 37.8328 31.31 37.7021C30.7935 37.4351 30.198 37.2325 29.802 36.8365C28.1437 35.1781 27.2873 33.1334 27.1213 30.7959C27.11 30.6371 27.0752 30.4725 27.0126 30.3274C26.9651 30.2174 26.8558 30.1341 26.774 30.0389C26.6876 30.1328 26.5584 30.2124 26.5214 30.3229C26.2044 31.2684 25.8841 32.2139 25.6082 33.1718C25.494 33.5683 25.4854 33.9952 25.4287 34.4082Z" fill="white"/>
<path d="M0.271951 18.7278C0.271951 18.7278 0.278028 18.6995 0.314456 18.6929C0.403685 18.6582 0.469121 18.6419 0.50734 18.6004C0.909499 18.1641 1.30764 17.7241 1.70609 17.2844C1.8024 17.1781 1.89573 17.0691 2.01218 16.9477C2.3201 16.7372 2.60277 16.535 2.8931 16.3445C3.94514 15.6543 5.12721 15.2837 6.35011 15.1108C7.48863 14.9499 8.64825 14.9408 9.79753 14.8513C10.0273 14.8334 10.2523 14.7542 10.4795 14.7033C10.5836 14.7003 10.6878 14.6973 10.8419 14.6989C10.9258 14.7056 10.9598 14.7077 11.0282 14.7216C11.2479 14.7348 11.4377 14.7622 11.6168 14.7299C11.7788 14.7007 11.929 14.6063 12.0843 14.5406C12.1383 14.5335 12.1923 14.5263 12.2934 14.5409C12.6055 14.4921 12.8706 14.4215 13.1567 14.3489C13.2055 14.3414 13.2331 14.3359 13.2889 14.3423C14.1523 14.0995 14.9551 13.7883 15.6149 13.1122C15.2875 12.9447 15.0633 12.9363 14.8541 13.1929C14.7522 13.2024 14.6782 13.2095 14.573 13.2024C14.3326 13.2004 14.0799 13.0753 13.9288 13.3777C13.7707 13.3878 13.6437 13.3915 13.4948 13.3729C12.8129 13.3414 12.1529 13.3311 11.4929 13.3233C10.4404 13.3108 9.50022 12.9787 8.66397 12.3413C8.60151 12.2937 8.5102 12.284 8.43083 12.2556C8.42936 12.2545 8.42764 12.2514 8.43394 12.2247C8.31319 12.0876 8.18613 11.9772 8.04963 11.8537C8.04017 11.8407 8.02819 11.8108 8.039 11.785C8.00166 11.722 7.95351 11.6848 7.90738 11.6435C7.90939 11.6394 7.90131 11.6437 7.90878 11.6166C7.86753 11.5266 7.81881 11.4636 7.75439 11.3771C7.69122 11.2015 7.64375 11.0493 7.59628 10.8972C7.62902 10.8831 7.66177 10.8689 7.69451 10.8548C7.75203 10.9047 7.80956 10.9546 7.86357 11.0316C8.15417 11.3409 8.4357 11.6382 8.74892 11.8973C8.86608 11.9942 9.05708 12.0018 9.22723 12.0535C9.24006 12.0569 9.2596 12.0389 9.2596 12.0389C9.2596 12.0389 9.25833 12.0545 9.2646 12.0833C9.35135 12.1546 9.43183 12.1971 9.53794 12.2461C9.59736 12.2466 9.63115 12.2406 9.66493 12.2345C9.69643 12.2424 9.72793 12.2502 9.77697 12.2748C9.79451 12.2916 9.81021 12.3162 9.81687 12.3396C9.87549 12.3807 9.92746 12.3985 10.0032 12.4259C10.1065 12.4296 10.186 12.4238 10.2655 12.4179C10.3405 12.4302 10.4156 12.4424 10.5229 12.4853C10.6862 12.5536 10.8172 12.5912 10.9805 12.6328C11.1194 12.6288 11.2261 12.6207 11.3327 12.6127C11.8348 12.6181 12.337 12.6235 12.9047 12.6383C13.1029 12.6446 13.2355 12.6416 13.389 12.6556C13.6061 12.6076 13.8022 12.5428 13.9984 12.4779C14.0493 12.4685 14.1003 12.4591 14.1957 12.4623C14.3041 12.4726 14.368 12.4703 14.446 12.4867C14.5762 12.4493 14.6924 12.3933 14.817 12.3251C14.8254 12.313 14.8135 12.286 14.8135 12.286C14.8461 12.2816 14.8787 12.2771 14.9577 12.2789C15.038 12.285 15.0717 12.2849 15.1254 12.2976C15.2362 12.2468 15.3271 12.1829 15.418 12.1191C15.418 12.1191 15.4476 12.1052 15.4919 12.1108C15.6175 12.1037 15.6988 12.091 15.8033 12.086C15.8687 12.0525 15.9109 12.0114 15.9692 11.9635C16.0429 11.9449 16.1005 11.933 16.1811 11.9297C16.2452 11.8977 16.2863 11.8572 16.3504 11.8025C16.4782 11.7574 16.583 11.7264 16.7105 11.704C16.7719 11.6704 16.8105 11.6282 16.8737 11.5814C16.9296 11.5658 16.9609 11.555 17.015 11.5524C17.0808 11.5229 17.124 11.485 17.1769 11.4342C17.202 11.4034 17.2065 11.3832 17.1998 11.3605C17.2247 11.3521 17.2495 11.3438 17.3053 11.3444C17.3736 11.3458 17.4108 11.3382 17.4716 11.3366C17.5353 11.3008 17.5756 11.2589 17.6392 11.2134C17.6922 11.1995 17.7219 11.1893 17.775 11.1857C17.8395 11.1513 17.8807 11.1101 17.928 11.0525C17.9341 11.0362 17.9196 11.0044 17.9196 11.0044C17.9486 10.9944 17.9777 10.9844 18.05 10.9758C18.1478 10.9253 18.2024 10.8735 18.257 10.8217C18.2836 10.8106 18.3102 10.7995 18.384 10.7843C18.6598 10.6624 18.8882 10.5447 19.1401 10.4345C19.2023 10.3991 19.2411 10.3561 19.2806 10.3138C19.2814 10.3145 19.2806 10.3127 19.3063 10.3129C19.3956 10.2672 19.4592 10.2213 19.545 10.1623C19.8054 9.98874 20.0428 9.82711 20.2819 9.66786C21.7808 8.66923 23.1537 7.544 24.0007 5.90386C24.5741 4.79344 24.6189 3.67655 23.9743 2.57484C23.4326 1.64874 22.631 0.990784 21.7293 0.440071C21.6216 0.374266 21.5218 0.295495 21.4183 0.222735C21.4347 0.1813 21.4511 0.139865 21.4675 0.0984297C21.7723 0.170415 22.0742 0.259947 22.3825 0.311045C23.2525 0.455251 24.0562 0.779191 24.8183 1.20594C26.0759 1.9101 27.1668 2.81974 27.8509 4.10171C28.2223 4.79749 28.5477 5.5678 28.6607 6.33866C28.7991 7.28373 28.7944 8.26383 28.4954 9.21802C28.2529 9.99157 27.9094 10.7048 27.4327 11.3477C26.6124 12.4541 25.5329 13.275 24.3781 14.0016C22.151 15.4029 19.7224 16.3764 17.2891 17.3411C17.0464 17.4373 16.8246 17.5866 16.57 17.715C16.487 17.7356 16.4272 17.7525 16.3403 17.7588C16.2275 17.8074 16.1418 17.8665 16.0559 17.9289C16.0557 17.9322 16.0621 17.9336 16.0379 17.9257C15.9811 17.9265 15.9485 17.9352 15.8986 17.9308C15.6602 18.0444 15.4392 18.1712 15.1975 18.3021C15.1506 18.3158 15.1244 18.3256 15.0706 18.326C14.8735 18.4108 14.704 18.5049 14.5057 18.6017C14.2478 18.7325 14.0186 18.8606 13.7657 18.9948C13.6861 19.0341 13.6302 19.0671 13.5491 19.0966C13.4151 19.1872 13.3063 19.2814 13.1943 19.3792C13.191 19.3829 13.1988 19.3889 13.1716 19.381C13.1104 19.388 13.0765 19.403 13.0203 19.4105C12.9231 19.476 12.8481 19.5489 12.7526 19.6371C12.6649 19.7034 12.5976 19.7544 12.5066 19.7927C12.353 19.9011 12.2231 20.0222 12.0707 20.1551C11.9481 20.2528 11.8478 20.3387 11.7207 20.4202C11.4477 20.6758 11.2017 20.9359 10.9351 21.2126C10.6969 21.5171 10.4793 21.805 10.2394 22.1063C10.1276 22.2686 10.0382 22.4176 9.92801 22.575C9.88146 22.6198 9.85578 22.656 9.80974 22.6856C9.68274 22.9058 9.57609 23.1329 9.46067 23.3794C9.44378 23.4264 9.43566 23.4537 9.40231 23.4892C9.3394 23.5746 9.30171 23.6517 9.24392 23.7405C9.17837 23.8976 9.13292 24.0433 9.07919 24.209C9.06168 24.2567 9.05246 24.2842 9.02076 24.3124C8.97411 24.3979 8.94993 24.4829 8.91878 24.5885C8.90577 24.6375 8.89973 24.6659 8.87039 24.7059C8.74873 25.0708 8.65038 25.424 8.55203 25.7772C8.54224 25.8285 8.53245 25.8798 8.49515 25.9679C8.42144 26.2809 8.37525 26.557 8.32906 26.8332C8.32343 26.8672 8.3178 26.9012 8.28499 26.9653C8.21953 27.1953 8.18124 27.3953 8.13737 27.6206C8.1403 27.6786 8.1488 27.7112 8.1573 27.7439C8.14486 27.8529 8.13242 27.962 8.09516 28.1112C7.96176 28.2803 7.8532 28.4092 7.74463 28.5382C7.74463 28.5382 7.74457 28.5264 7.7531 28.4948C7.71547 28.3712 7.6693 28.2793 7.615 28.1784C7.60686 28.1696 7.5861 28.1817 7.5861 28.1817C7.57497 28.1278 7.56385 28.0738 7.56422 27.9815C7.46748 27.6936 7.35924 27.444 7.24229 27.1891C7.23357 27.1838 7.21696 27.1957 7.21696 27.1957C7.21129 27.1628 7.20563 27.1298 7.20221 27.0509C7.19862 26.9734 7.19278 26.9419 7.19836 26.8886C7.09924 26.5967 6.98871 26.3265 6.86957 26.0516C6.86096 26.0469 6.84524 26.0587 6.84524 26.0587C6.83574 26.0045 6.82625 25.9504 6.81992 25.8463C6.81772 25.7624 6.81234 25.7283 6.81974 25.675C6.77302 25.5407 6.71352 25.4258 6.65265 25.2858C6.6459 25.2275 6.64051 25.1943 6.65357 25.1424C6.60188 24.8759 6.53174 24.6283 6.46161 24.3806C6.45763 24.3279 6.45365 24.2753 6.45573 24.169C6.45585 24.0364 6.4499 23.9574 6.45721 23.8509C6.46463 23.1829 6.45881 22.5425 6.46015 21.8736C6.46339 21.7682 6.45947 21.6913 6.46091 21.5867C6.47425 21.4847 6.48224 21.4103 6.51434 21.3276C6.57493 21.2139 6.61143 21.1085 6.65725 20.9767C6.66068 20.9146 6.65478 20.8789 6.65652 20.8259C6.66415 20.8086 6.67043 20.7714 6.6964 20.7674C6.75566 20.6575 6.78895 20.5515 6.83259 20.4167C6.87559 20.2911 6.90824 20.1943 6.96205 20.0927C6.99219 20.048 7.00117 20.0082 7.02078 19.953C7.04257 19.9153 7.05033 19.8917 7.07904 19.8657C7.14379 19.7882 7.18419 19.712 7.2397 19.6184C7.26293 19.588 7.27104 19.5749 7.30437 19.5584C7.35644 19.5018 7.3833 19.4486 7.42058 19.3714C7.54466 19.1519 7.65831 18.9565 7.78275 18.7544C7.79353 18.7477 7.81526 18.7348 7.84473 18.7358C7.91222 18.6709 7.95023 18.605 7.9914 18.5256C7.99457 18.5121 8.01107 18.4899 8.03904 18.4929C8.17784 18.3693 8.28868 18.2427 8.40174 18.1141C8.40396 18.1121 8.40807 18.1076 8.42919 18.112C8.47696 18.0732 8.5036 18.0299 8.53492 17.9694C8.55149 17.9289 8.55129 17.9058 8.5421 17.8786C8.54519 17.8744 8.55279 17.8673 8.57036 17.8704C8.61045 17.8656 8.63292 17.8575 8.67027 17.8632C8.71816 17.8318 8.75114 17.7865 8.78584 17.7401C8.78756 17.7391 8.79009 17.7361 8.81601 17.739C8.88458 17.6763 8.92722 17.6107 8.97069 17.5436C8.97153 17.542 8.97476 17.5406 9.00128 17.5394C9.301 17.3447 9.58523 17.1646 9.8423 16.9516C9.95486 16.8584 10.0725 16.6899 9.76936 16.6084C9.65907 16.6019 9.57894 16.5958 9.4862 16.5639C8.50202 16.5427 7.53041 16.5443 6.559 16.5593C6.49728 16.5603 6.43718 16.6661 6.37633 16.7232C6.32263 16.7329 6.26892 16.7426 6.17027 16.7474C6.04807 16.7411 5.97082 16.7397 5.8612 16.7233C5.47557 16.6277 5.16793 16.7459 4.85487 16.9311C4.80811 16.9382 4.78126 16.9415 4.7268 16.9324C4.5766 16.9778 4.45403 17.0355 4.30926 17.1027C4.25522 17.1159 4.22336 17.1196 4.17398 17.1027C3.8541 17.1737 3.54569 17.2496 3.25186 17.3631C3.09622 17.4232 2.96591 17.5489 2.80645 17.6544C2.76245 17.6684 2.73618 17.6729 2.68046 17.6675C2.20187 17.9275 1.75273 18.1974 1.29212 18.4846C1.24834 18.5276 1.21603 18.5532 1.15556 18.5729C0.986515 18.6887 0.845632 18.8103 0.692856 18.9397C0.680962 18.9473 0.654481 18.9571 0.627428 18.9509C0.43284 19.0401 0.265305 19.1357 0.0972726 19.2306C0.0967752 19.23 0.095669 19.2291 0.0984007 19.2015C0.158072 19.0252 0.215011 18.8765 0.271951 18.7278Z" fill="white"/>
<path d="M14.3742 7.56021C14.6053 7.56531 14.8363 7.57041 15.1207 7.58579C15.287 7.59078 15.3998 7.58549 15.5127 7.5802C15.5385 7.5887 15.5642 7.5972 15.6218 7.62548C15.8657 7.77252 16.0778 7.89978 16.2899 8.02705C16.2867 8.08771 16.2836 8.14837 16.2605 8.24508C16.0339 8.49268 15.8273 8.70424 15.6206 8.9158C15.6206 8.9158 15.596 8.91313 15.5661 8.91616C15.4976 8.93911 15.459 8.95903 15.3933 8.9832C15.2881 9.02866 15.2101 9.06986 15.1322 9.11105C15.0981 9.11274 15.0641 9.11443 14.9837 9.11744C14.8267 9.16848 14.716 9.21818 14.6054 9.26788C14.5241 9.27164 14.4428 9.2754 14.306 9.2783C13.9616 9.34113 13.6727 9.40483 13.3525 9.46186C13.2165 9.46926 13.1118 9.48334 12.9772 9.48713C12.5883 9.53418 12.2293 9.59151 11.8444 9.64121C11.7845 9.6428 11.7504 9.65203 11.6874 9.64999C11.4158 9.69412 11.1732 9.74952 10.9305 9.80491C10.9039 9.80117 10.8773 9.79743 10.814 9.78319C10.663 9.79331 10.5487 9.81393 10.4344 9.83455C10.4007 9.8333 10.367 9.83205 10.2814 9.82912C10.1711 9.83956 10.1128 9.85168 10.0282 9.85384C9.8696 9.89358 9.73723 9.94328 9.60485 9.99299C9.54772 9.99612 9.4906 9.99924 9.38058 10.0018C9.26389 9.93878 9.20009 9.87632 9.15505 9.79957C9.17881 9.74093 9.18381 9.69656 9.18882 9.6522C9.23075 9.60796 9.27268 9.56373 9.34023 9.48626C9.41483 9.37158 9.46381 9.29012 9.5128 9.20867C9.53353 9.18245 9.55427 9.15622 9.60649 9.10668C9.67433 9.01818 9.71068 8.95301 9.74703 8.88784C9.74703 8.88784 9.7513 8.88863 9.77126 8.89822C9.82164 8.85654 9.85206 8.80527 9.88249 8.754C9.95027 8.68906 10.0181 8.62412 10.1089 8.53063C10.241 8.38255 10.3501 8.26302 10.484 8.14211C10.5377 8.12491 10.5666 8.10909 10.6223 8.09276C10.8912 7.89758 11.1334 7.70291 11.3656 7.49429C11.3556 7.48032 11.3767 7.50757 11.403 7.50387C11.7239 7.34047 12.0136 7.17076 12.3144 7.02388C12.6115 6.87884 12.9197 6.75687 13.2231 6.62478C13.3126 6.62658 13.4022 6.62838 13.5413 6.63823C13.7546 6.63309 13.9184 6.6199 14.0822 6.6067C14.1969 6.61659 14.3116 6.62648 14.4707 6.65233C14.7798 6.80164 15.0444 6.93499 15.3934 7.11093C15.2053 7.18141 15.1283 7.21023 15.0514 7.23904C14.9501 7.2332 14.8489 7.22735 14.6866 7.21627C14.0427 7.18709 13.5089 7.32485 13.0455 7.70077C13.4884 7.65391 13.9313 7.60706 14.3742 7.56021Z" fill="#3DBE58"/>
<path d="M3.97014 9.76494C4.16079 9.7732 4.35144 9.78146 4.58336 9.81412C4.91853 10.0432 4.90025 10.3486 4.80586 10.6181C4.71496 10.8776 4.51939 11.0852 4.19307 11.0875C3.8468 11.0899 3.50062 11.1039 3.1544 11.1128C3.07994 11.1029 3.00549 11.093 2.89362 11.0623C2.46213 10.9049 2.06806 10.7683 1.58008 10.5991C1.79293 10.496 1.9303 10.4306 2.06658 10.363C2.20511 10.2943 2.34254 10.2234 2.48046 10.1535C2.51384 10.1535 2.54723 10.1535 2.63162 10.155C3.1118 10.026 3.54097 9.89545 3.97014 9.76494Z" fill="white"/>
<path d="M1.11869 13.365C0.981214 13.3543 0.871495 13.3387 0.759786 13.3227C0.865343 12.9767 1.67326 12.4245 1.98156 12.4937C2.06341 12.5121 2.17887 12.601 2.18787 12.6695C2.19986 12.7607 2.15042 12.911 2.07887 12.9527C1.8453 13.0887 1.58971 13.187 1.32853 13.3237C1.25847 13.3518 1.20246 13.3559 1.11869 13.365Z" fill="white"/>
<path d="M11.169 0.241407C11.551 0.39187 11.9112 0.540589 12.3011 0.688177C12.3861 0.718692 12.4413 0.750337 12.52 0.787365C12.7948 0.94908 13.0627 1.08423 13.2941 1.26592C13.87 1.71814 14.4292 2.19155 15.0202 2.66012C15.0453 2.66378 15.0468 2.66466 15.0467 2.68844C15.0906 2.75099 15.1348 2.78975 15.1789 2.82851C15.1897 2.85394 15.2005 2.87936 15.2152 2.95005C15.3307 3.19192 15.4425 3.38854 15.5543 3.58516C15.5589 3.61367 15.5636 3.64219 15.5567 3.71539C15.5434 4.13966 15.5417 4.51925 15.5399 4.89885C15.504 4.90691 15.468 4.91497 15.432 4.92303C15.1421 4.5249 14.8522 4.12678 14.5555 3.7056C14.4416 3.48833 14.3345 3.29412 14.2168 3.0777C14.1256 2.96289 14.0451 2.87028 13.9646 2.77767C13.9441 2.79013 13.9237 2.80259 13.9032 2.81505C13.9573 2.90829 14.0115 3.00153 14.0687 3.12544C14.1817 3.39997 14.2917 3.64383 14.4074 3.91419C14.4749 4.09023 14.5366 4.23979 14.5967 4.41547C14.6402 4.50667 14.6852 4.57174 14.7334 4.65134C14.7366 4.66587 14.7467 4.69381 14.7456 4.72063C14.8124 4.85936 14.8802 4.97127 14.9481 5.08318C14.9777 5.13893 15.0074 5.19469 15.0363 5.30375C15.0398 5.59564 15.0442 5.83422 15.0486 6.0728C14.9664 6.07101 14.8842 6.06923 14.7533 6.04961C14.2046 5.92034 13.7588 5.71418 13.419 5.31362C13.2162 5.07457 13.0053 4.84241 12.798 4.60715C12.7188 4.42387 12.6397 4.24058 12.5482 4.03218C12.4161 3.66081 12.3285 3.29896 12.1699 2.97155C11.8402 2.2915 11.4729 1.62972 11.0953 0.956535C11.0114 0.87379 10.9534 0.79494 10.8833 0.693749C10.8377 0.560686 10.8042 0.449966 10.7594 0.301663C10.845 0.284952 10.9313 0.268087 11.0397 0.236332C11.0903 0.227515 11.1187 0.233589 11.169 0.241407Z" fill="#3DBE58"/>
<path d="M18.2494 6.49755C18.1049 6.62102 17.9789 6.72488 17.8395 6.8493C17.7838 6.89636 17.7424 6.94406 17.6991 6.94588C17.462 6.95583 17.1597 7.04172 17.008 6.92896C16.8907 6.84176 16.898 6.48064 16.9626 6.27703C17.101 5.84066 17.3122 5.42741 17.5265 4.97054C17.6053 4.8085 17.6527 4.68104 17.6919 4.5511C17.6933 4.54631 17.5866 4.49246 17.5767 4.50341C17.5084 4.57899 17.4525 4.66572 17.3925 4.74887C17.1452 5.09676 16.8979 5.44465 16.6223 5.83218C16.4867 5.33924 16.6633 4.93929 16.8466 4.55809C17.1475 3.9325 17.6924 3.51983 18.2221 3.07161C18.2823 3.00514 18.3362 2.96083 18.4117 2.91288C18.6388 2.82934 18.8468 2.75574 19.0489 2.66827C19.546 2.45308 20.0343 2.21117 20.681 2.14978C20.0119 3.39069 19.3868 4.54988 18.7639 5.73691C18.766 5.76474 18.7668 5.76652 18.7413 5.77118C18.6388 5.92378 18.5616 6.07171 18.4845 6.21965C18.4782 6.23148 18.4718 6.24332 18.4674 6.27645C18.4693 6.29775 18.4648 6.29669 18.4648 6.29669C18.3992 6.35711 18.3336 6.41753 18.2494 6.49755Z" fill="#3DBE58"/>
</svg>
